<?xml version="1.0" encoding="utf-8" standalone="no"?>
<!DOCTYPE svg PUBLIC "-//W3C//DTD SVG 1.1//EN"
  "http://www.w3.org/Graphics/SVG/1.1/DTD/svg11.dtd">
<svg xmlns:xlink="http://www.w3.org/1999/xlink" width="352.25pt" height="253.914375pt" viewBox="0 0 352.25 253.914375" xmlns="http://www.w3.org/2000/svg" version="1.1">
 <metadata>
  <rdf:RDF xmlns:dc="http://purl.org/dc/elements/1.1/" xmlns:cc="http://creativecommons.org/ns#" xmlns:rdf="http://www.w3.org/1999/02/22-rdf-syntax-ns#">
   <cc:Work>
    <dc:type rdf:resource="http://purl.org/dc/dcmitype/StillImage"/>
    <dc:date>2023-02-14T17:22:36.486132</dc:date>
    <dc:format>image/svg+xml</dc:format>
    <dc:creator>
     <cc:Agent>
      <dc:title>Matplotlib v3.5.2, https://matplotlib.org/</dc:title>
     </cc:Agent>
    </dc:creator>
   </cc:Work>
  </rdf:RDF>
 </metadata>
 <defs>
  <style type="text/css">*{stroke-linejoin: round; stroke-linecap: butt}</style>
 </defs>
 <g id="figure_1">
  <g id="patch_1">
   <path d="M 0 253.914375 
L 352.25 253.914375 
L 352.25 0 
L 0 0 
z
" style="fill: #ffffff"/>
  </g>
  <g id="axes_1">
   <g id="patch_2">
    <path d="M 56.50625 216.358125 
L 335.50625 216.358125 
L 335.50625 22.318125 
L 56.50625 22.318125 
z
" style="fill: #ffffff"/>
   </g>
   <g id="matplotlib.axis_1">
    <g id="xtick_1">
     <g id="line2d_1">
      <path d="M 56.50625 216.358125 
L 56.50625 22.318125 
" clip-path="url(#pc4aa8ffbaa)" style="fill: none; stroke: #b0b0b0; stroke-width: 0.8; stroke-linecap: square"/>
     </g>
     <g id="line2d_2">
      <defs>
       <path id="ma44a478016" d="M 0 0 
L 0 3.5 
" style="stroke: #000000; stroke-width: 0.8"/>
      </defs>
      <g>
       <use xlink:href="#ma44a478016" x="56.50625" y="216.358125" style="stroke: #000000; stroke-width: 0.8"/>
      </g>
     </g>
     <g id="text_1">
      <!-- 0 -->
      <g transform="translate(53.325 230.956562)scale(0.1 -0.1)">
       <defs>
        <path id="DejaVuSans-30" d="M 2034 4250 
Q 1547 4250 1301 3770 
Q 1056 3291 1056 2328 
Q 1056 1369 1301 889 
Q 1547 409 2034 409 
Q 2525 409 2770 889 
Q 3016 1369 3016 2328 
Q 3016 3291 2770 3770 
Q 2525 4250 2034 4250 
z
M 2034 4750 
Q 2819 4750 3233 4129 
Q 3647 3509 3647 2328 
Q 3647 1150 3233 529 
Q 2819 -91 2034 -91 
Q 1250 -91 836 529 
Q 422 1150 422 2328 
Q 422 3509 836 4129 
Q 1250 4750 2034 4750 
z
" transform="scale(0.015625)"/>
       </defs>
       <use xlink:href="#DejaVuSans-30"/>
      </g>
     </g>
    </g>
    <g id="xtick_2">
     <g id="line2d_3">
      <path d="M 103.00625 216.358125 
L 103.00625 22.318125 
" clip-path="url(#pc4aa8ffbaa)" style="fill: none; stroke: #b0b0b0; stroke-width: 0.8; stroke-linecap: square"/>
     </g>
     <g id="line2d_4">
      <g>
       <use xlink:href="#ma44a478016" x="103.00625" y="216.358125" style="stroke: #000000; stroke-width: 0.8"/>
      </g>
     </g>
     <g id="text_2">
      <!-- 20 -->
      <g transform="translate(96.64375 230.956562)scale(0.1 -0.1)">
       <defs>
        <path id="DejaVuSans-32" d="M 1228 531 
L 3431 531 
L 3431 0 
L 469 0 
L 469 531 
Q 828 903 1448 1529 
Q 2069 2156 2228 2338 
Q 2531 2678 2651 2914 
Q 2772 3150 2772 3378 
Q 2772 3750 2511 3984 
Q 2250 4219 1831 4219 
Q 1534 4219 1204 4116 
Q 875 4013 500 3803 
L 500 4441 
Q 881 4594 1212 4672 
Q 1544 4750 1819 4750 
Q 2544 4750 2975 4387 
Q 3406 4025 3406 3419 
Q 3406 3131 3298 2873 
Q 3191 2616 2906 2266 
Q 2828 2175 2409 1742 
Q 1991 1309 1228 531 
z
" transform="scale(0.015625)"/>
       </defs>
       <use xlink:href="#DejaVuSans-32"/>
       <use xlink:href="#DejaVuSans-30" x="63.623047"/>
      </g>
     </g>
    </g>
    <g id="xtick_3">
     <g id="line2d_5">
      <path d="M 149.50625 216.358125 
L 149.50625 22.318125 
" clip-path="url(#pc4aa8ffbaa)" style="fill: none; stroke: #b0b0b0; stroke-width: 0.8; stroke-linecap: square"/>
     </g>
     <g id="line2d_6">
      <g>
       <use xlink:href="#ma44a478016" x="149.50625" y="216.358125" style="stroke: #000000; stroke-width: 0.8"/>
      </g>
     </g>
     <g id="text_3">
      <!-- 40 -->
      <g transform="translate(143.14375 230.956562)scale(0.1 -0.1)">
       <defs>
        <path id="DejaVuSans-34" d="M 2419 4116 
L 825 1625 
L 2419 1625 
L 2419 4116 
z
M 2253 4666 
L 3047 4666 
L 3047 1625 
L 3713 1625 
L 3713 1100 
L 3047 1100 
L 3047 0 
L 2419 0 
L 2419 1100 
L 313 1100 
L 313 1709 
L 2253 4666 
z
" transform="scale(0.015625)"/>
       </defs>
       <use xlink:href="#DejaVuSans-34"/>
       <use xlink:href="#DejaVuSans-30" x="63.623047"/>
      </g>
     </g>
    </g>
    <g id="xtick_4">
     <g id="line2d_7">
      <path d="M 196.00625 216.358125 
L 196.00625 22.318125 
" clip-path="url(#pc4aa8ffbaa)" style="fill: none; stroke: #b0b0b0; stroke-width: 0.8; stroke-linecap: square"/>
     </g>
     <g id="line2d_8">
      <g>
       <use xlink:href="#ma44a478016" x="196.00625" y="216.358125" style="stroke: #000000; stroke-width: 0.8"/>
      </g>
     </g>
     <g id="text_4">
      <!-- 60 -->
      <g transform="translate(189.64375 230.956562)scale(0.1 -0.1)">
       <defs>
        <path id="DejaVuSans-36" d="M 2113 2584 
Q 1688 2584 1439 2293 
Q 1191 2003 1191 1497 
Q 1191 994 1439 701 
Q 1688 409 2113 409 
Q 2538 409 2786 701 
Q 3034 994 3034 1497 
Q 3034 2003 2786 2293 
Q 2538 2584 2113 2584 
z
M 3366 4563 
L 3366 3988 
Q 3128 4100 2886 4159 
Q 2644 4219 2406 4219 
Q 1781 4219 1451 3797 
Q 1122 3375 1075 2522 
Q 1259 2794 1537 2939 
Q 1816 3084 2150 3084 
Q 2853 3084 3261 2657 
Q 3669 2231 3669 1497 
Q 3669 778 3244 343 
Q 2819 -91 2113 -91 
Q 1303 -91 875 529 
Q 447 1150 447 2328 
Q 447 3434 972 4092 
Q 1497 4750 2381 4750 
Q 2619 4750 2861 4703 
Q 3103 4656 3366 4563 
z
" transform="scale(0.015625)"/>
       </defs>
       <use xlink:href="#DejaVuSans-36"/>
       <use xlink:href="#DejaVuSans-30" x="63.623047"/>
      </g>
     </g>
    </g>
    <g id="xtick_5">
     <g id="line2d_9">
      <path d="M 242.50625 216.358125 
L 242.50625 22.318125 
" clip-path="url(#pc4aa8ffbaa)" style="fill: none; stroke: #b0b0b0; stroke-width: 0.8; stroke-linecap: square"/>
     </g>
     <g id="line2d_10">
      <g>
       <use xlink:href="#ma44a478016" x="242.50625" y="216.358125" style="stroke: #000000; stroke-width: 0.8"/>
      </g>
     </g>
     <g id="text_5">
      <!-- 80 -->
      <g transform="translate(236.14375 230.956562)scale(0.1 -0.1)">
       <defs>
        <path id="DejaVuSans-38" d="M 2034 2216 
Q 1584 2216 1326 1975 
Q 1069 1734 1069 1313 
Q 1069 891 1326 650 
Q 1584 409 2034 409 
Q 2484 409 2743 651 
Q 3003 894 3003 1313 
Q 3003 1734 2745 1975 
Q 2488 2216 2034 2216 
z
M 1403 2484 
Q 997 2584 770 2862 
Q 544 3141 544 3541 
Q 544 4100 942 4425 
Q 1341 4750 2034 4750 
Q 2731 4750 3128 4425 
Q 3525 4100 3525 3541 
Q 3525 3141 3298 2862 
Q 3072 2584 2669 2484 
Q 3125 2378 3379 2068 
Q 3634 1759 3634 1313 
Q 3634 634 3220 271 
Q 2806 -91 2034 -91 
Q 1263 -91 848 271 
Q 434 634 434 1313 
Q 434 1759 690 2068 
Q 947 2378 1403 2484 
z
M 1172 3481 
Q 1172 3119 1398 2916 
Q 1625 2713 2034 2713 
Q 2441 2713 2670 2916 
Q 2900 3119 2900 3481 
Q 2900 3844 2670 4047 
Q 2441 4250 2034 4250 
Q 1625 4250 1398 4047 
Q 1172 3844 1172 3481 
z
" transform="scale(0.015625)"/>
       </defs>
       <use xlink:href="#DejaVuSans-38"/>
       <use xlink:href="#DejaVuSans-30" x="63.623047"/>
      </g>
     </g>
    </g>
    <g id="xtick_6">
     <g id="line2d_11">
      <path d="M 289.00625 216.358125 
L 289.00625 22.318125 
" clip-path="url(#pc4aa8ffbaa)" style="fill: none; stroke: #b0b0b0; stroke-width: 0.8; stroke-linecap: square"/>
     </g>
     <g id="line2d_12">
      <g>
       <use xlink:href="#ma44a478016" x="289.00625" y="216.358125" style="stroke: #000000; stroke-width: 0.8"/>
      </g>
     </g>
     <g id="text_6">
      <!-- 100 -->
      <g transform="translate(279.4625 230.956562)scale(0.1 -0.1)">
       <defs>
        <path id="DejaVuSans-31" d="M 794 531 
L 1825 531 
L 1825 4091 
L 703 3866 
L 703 4441 
L 1819 4666 
L 2450 4666 
L 2450 531 
L 3481 531 
L 3481 0 
L 794 0 
L 794 531 
z
" transform="scale(0.015625)"/>
       </defs>
       <use xlink:href="#DejaVuSans-31"/>
       <use xlink:href="#DejaVuSans-30" x="63.623047"/>
       <use xlink:href="#DejaVuSans-30" x="127.246094"/>
      </g>
     </g>
    </g>
    <g id="xtick_7">
     <g id="line2d_13">
      <path d="M 335.50625 216.358125 
L 335.50625 22.318125 
" clip-path="url(#pc4aa8ffbaa)" style="fill: none; stroke: #b0b0b0; stroke-width: 0.8; stroke-linecap: square"/>
     </g>
     <g id="line2d_14">
      <g>
       <use xlink:href="#ma44a478016" x="335.50625" y="216.358125" style="stroke: #000000; stroke-width: 0.8"/>
      </g>
     </g>
     <g id="text_7">
      <!-- 120 -->
      <g transform="translate(325.9625 230.956562)scale(0.1 -0.1)">
       <use xlink:href="#DejaVuSans-31"/>
       <use xlink:href="#DejaVuSans-32" x="63.623047"/>
       <use xlink:href="#DejaVuSans-30" x="127.246094"/>
      </g>
     </g>
    </g>
    <g id="text_8">
     <!-- age -->
     <g transform="translate(186.691406 244.634687)scale(0.1 -0.1)">
      <defs>
       <path id="DejaVuSans-61" d="M 2194 1759 
Q 1497 1759 1228 1600 
Q 959 1441 959 1056 
Q 959 750 1161 570 
Q 1363 391 1709 391 
Q 2188 391 2477 730 
Q 2766 1069 2766 1631 
L 2766 1759 
L 2194 1759 
z
M 3341 1997 
L 3341 0 
L 2766 0 
L 2766 531 
Q 2569 213 2275 61 
Q 1981 -91 1556 -91 
Q 1019 -91 701 211 
Q 384 513 384 1019 
Q 384 1609 779 1909 
Q 1175 2209 1959 2209 
L 2766 2209 
L 2766 2266 
Q 2766 2663 2505 2880 
Q 2244 3097 1772 3097 
Q 1472 3097 1187 3025 
Q 903 2953 641 2809 
L 641 3341 
Q 956 3463 1253 3523 
Q 1550 3584 1831 3584 
Q 2591 3584 2966 3190 
Q 3341 2797 3341 1997 
z
" transform="scale(0.015625)"/>
       <path id="DejaVuSans-67" d="M 2906 1791 
Q 2906 2416 2648 2759 
Q 2391 3103 1925 3103 
Q 1463 3103 1205 2759 
Q 947 2416 947 1791 
Q 947 1169 1205 825 
Q 1463 481 1925 481 
Q 2391 481 2648 825 
Q 2906 1169 2906 1791 
z
M 3481 434 
Q 3481 -459 3084 -895 
Q 2688 -1331 1869 -1331 
Q 1566 -1331 1297 -1286 
Q 1028 -1241 775 -1147 
L 775 -588 
Q 1028 -725 1275 -790 
Q 1522 -856 1778 -856 
Q 2344 -856 2625 -561 
Q 2906 -266 2906 331 
L 2906 616 
Q 2728 306 2450 153 
Q 2172 0 1784 0 
Q 1141 0 747 490 
Q 353 981 353 1791 
Q 353 2603 747 3093 
Q 1141 3584 1784 3584 
Q 2172 3584 2450 3431 
Q 2728 3278 2906 2969 
L 2906 3500 
L 3481 3500 
L 3481 434 
z
" transform="scale(0.015625)"/>
       <path id="DejaVuSans-65" d="M 3597 1894 
L 3597 1613 
L 953 1613 
Q 991 1019 1311 708 
Q 1631 397 2203 397 
Q 2534 397 2845 478 
Q 3156 559 3463 722 
L 3463 178 
Q 3153 47 2828 -22 
Q 2503 -91 2169 -91 
Q 1331 -91 842 396 
Q 353 884 353 1716 
Q 353 2575 817 3079 
Q 1281 3584 2069 3584 
Q 2775 3584 3186 3129 
Q 3597 2675 3597 1894 
z
M 3022 2063 
Q 3016 2534 2758 2815 
Q 2500 3097 2075 3097 
Q 1594 3097 1305 2825 
Q 1016 2553 972 2059 
L 3022 2063 
z
" transform="scale(0.015625)"/>
      </defs>
      <use xlink:href="#DejaVuSans-61"/>
      <use xlink:href="#DejaVuSans-67" x="61.279297"/>
      <use xlink:href="#DejaVuSans-65" x="124.755859"/>
     </g>
    </g>
   </g>
   <g id="matplotlib.axis_2">
    <g id="ytick_1">
     <g id="line2d_15">
      <path d="M 56.50625 216.358125 
L 335.50625 216.358125 
" clip-path="url(#pc4aa8ffbaa)" style="fill: none; stroke: #b0b0b0; stroke-width: 0.8; stroke-linecap: square"/>
     </g>
     <g id="line2d_16">
      <defs>
       <path id="mbdbe94ea48" d="M 0 0 
L -3.5 0 
" style="stroke: #000000; stroke-width: 0.8"/>
      </defs>
      <g>
       <use xlink:href="#mbdbe94ea48" x="56.50625" y="216.358125" style="stroke: #000000; stroke-width: 0.8"/>
      </g>
     </g>
     <g id="text_9">
      <!-- 0.001 -->
      <g transform="translate(20.878125 220.157344)scale(0.1 -0.1)">
       <defs>
        <path id="DejaVuSans-2e" d="M 684 794 
L 1344 794 
L 1344 0 
L 684 0 
L 684 794 
z
" transform="scale(0.015625)"/>
       </defs>
       <use xlink:href="#DejaVuSans-30"/>
       <use xlink:href="#DejaVuSans-2e" x="63.623047"/>
       <use xlink:href="#DejaVuSans-30" x="95.410156"/>
       <use xlink:href="#DejaVuSans-30" x="159.033203"/>
       <use xlink:href="#DejaVuSans-31" x="222.65625"/>
      </g>
     </g>
    </g>
    <g id="ytick_2">
     <g id="line2d_17">
      <path d="M 56.50625 177.713894 
L 335.50625 177.713894 
" clip-path="url(#pc4aa8ffbaa)" style="fill: none; stroke: #b0b0b0; stroke-width: 0.8; stroke-linecap: square"/>
     </g>
     <g id="line2d_18">
      <g>
       <use xlink:href="#mbdbe94ea48" x="56.50625" y="177.713894" style="stroke: #000000; stroke-width: 0.8"/>
      </g>
     </g>
     <g id="text_10">
      <!-- 0.01 -->
      <g transform="translate(27.240625 181.513113)scale(0.1 -0.1)">
       <use xlink:href="#DejaVuSans-30"/>
       <use xlink:href="#DejaVuSans-2e" x="63.623047"/>
       <use xlink:href="#DejaVuSans-30" x="95.410156"/>
       <use xlink:href="#DejaVuSans-31" x="159.033203"/>
      </g>
     </g>
    </g>
    <g id="ytick_3">
     <g id="line2d_19">
      <path d="M 56.50625 139.069663 
L 335.50625 139.069663 
" clip-path="url(#pc4aa8ffbaa)" style="fill: none; stroke: #b0b0b0; stroke-width: 0.8; stroke-linecap: square"/>
     </g>
     <g id="line2d_20">
      <g>
       <use xlink:href="#mbdbe94ea48" x="56.50625" y="139.069663" style="stroke: #000000; stroke-width: 0.8"/>
      </g>
     </g>
     <g id="text_11">
      <!-- 0.1 -->
      <g transform="translate(33.603125 142.868881)scale(0.1 -0.1)">
       <use xlink:href="#DejaVuSans-30"/>
       <use xlink:href="#DejaVuSans-2e" x="63.623047"/>
       <use xlink:href="#DejaVuSans-31" x="95.410156"/>
      </g>
     </g>
    </g>
    <g id="ytick_4">
     <g id="line2d_21">
      <path d="M 56.50625 100.425432 
L 335.50625 100.425432 
" clip-path="url(#pc4aa8ffbaa)" style="fill: none; stroke: #b0b0b0; stroke-width: 0.8; stroke-linecap: square"/>
     </g>
     <g id="line2d_22">
      <g>
       <use xlink:href="#mbdbe94ea48" x="56.50625" y="100.425432" style="stroke: #000000; stroke-width: 0.8"/>
      </g>
     </g>
     <g id="text_12">
      <!-- 1. -->
      <g transform="translate(39.965625 104.22465)scale(0.1 -0.1)">
       <use xlink:href="#DejaVuSans-31"/>
       <use xlink:href="#DejaVuSans-2e" x="63.623047"/>
      </g>
     </g>
    </g>
    <g id="ytick_5">
     <g id="line2d_23">
      <path d="M 56.50625 61.7812 
L 335.50625 61.7812 
" clip-path="url(#pc4aa8ffbaa)" style="fill: none; stroke: #b0b0b0; stroke-width: 0.8; stroke-linecap: square"/>
     </g>
     <g id="line2d_24">
      <g>
       <use xlink:href="#mbdbe94ea48" x="56.50625" y="61.7812" style="stroke: #000000; stroke-width: 0.8"/>
      </g>
     </g>
     <g id="text_13">
      <!-- 10. -->
      <g transform="translate(33.603125 65.580419)scale(0.1 -0.1)">
       <use xlink:href="#DejaVuSans-31"/>
       <use xlink:href="#DejaVuSans-30" x="63.623047"/>
       <use xlink:href="#DejaVuSans-2e" x="127.246094"/>
      </g>
     </g>
    </g>
    <g id="ytick_6">
     <g id="line2d_25">
      <path d="M 56.50625 23.136969 
L 335.50625 23.136969 
" clip-path="url(#pc4aa8ffbaa)" style="fill: none; stroke: #b0b0b0; stroke-width: 0.8; stroke-linecap: square"/>
     </g>
     <g id="line2d_26">
      <g>
       <use xlink:href="#mbdbe94ea48" x="56.50625" y="23.136969" style="stroke: #000000; stroke-width: 0.8"/>
      </g>
     </g>
     <g id="text_14">
      <!-- 100. -->
      <g transform="translate(27.240625 26.936188)scale(0.1 -0.1)">
       <use xlink:href="#DejaVuSans-31"/>
       <use xlink:href="#DejaVuSans-30" x="63.623047"/>
       <use xlink:href="#DejaVuSans-30" x="127.246094"/>
       <use xlink:href="#DejaVuSans-2e" x="190.869141"/>
      </g>
     </g>
    </g>
    <g id="ytick_7">
     <g id="line2d_27">
      <path d="M 56.50625 204.725052 
L 335.50625 204.725052 
" clip-path="url(#pc4aa8ffbaa)" style="fill: none; stroke: #b0b0b0; stroke-width: 0.8; stroke-linecap: square"/>
     </g>
     <g id="line2d_28">
      <defs>
       <path id="mc774a6a61b" d="M 0 0 
L -2 0 
" style="stroke: #000000; stroke-width: 0.6"/>
      </defs>
      <g>
       <use xlink:href="#mc774a6a61b" x="56.50625" y="204.725052" style="stroke: #000000; stroke-width: 0.6"/>
      </g>
     </g>
    </g>
    <g id="ytick_8">
     <g id="line2d_29">
      <path d="M 56.50625 197.920141 
L 335.50625 197.920141 
" clip-path="url(#pc4aa8ffbaa)" style="fill: none; stroke: #b0b0b0; stroke-width: 0.8; stroke-linecap: square"/>
     </g>
     <g id="line2d_30">
      <g>
       <use xlink:href="#mc774a6a61b" x="56.50625" y="197.920141" style="stroke: #000000; stroke-width: 0.6"/>
      </g>
     </g>
    </g>
    <g id="ytick_9">
     <g id="line2d_31">
      <path d="M 56.50625 193.09198 
L 335.50625 193.09198 
" clip-path="url(#pc4aa8ffbaa)" style="fill: none; stroke: #b0b0b0; stroke-width: 0.8; stroke-linecap: square"/>
     </g>
     <g id="line2d_32">
      <g>
       <use xlink:href="#mc774a6a61b" x="56.50625" y="193.09198" style="stroke: #000000; stroke-width: 0.6"/>
      </g>
     </g>
    </g>
    <g id="ytick_10">
     <g id="line2d_33">
      <path d="M 56.50625 189.346967 
L 335.50625 189.346967 
" clip-path="url(#pc4aa8ffbaa)" style="fill: none; stroke: #b0b0b0; stroke-width: 0.8; stroke-linecap: square"/>
     </g>
     <g id="line2d_34">
      <g>
       <use xlink:href="#mc774a6a61b" x="56.50625" y="189.346967" style="stroke: #000000; stroke-width: 0.6"/>
      </g>
     </g>
    </g>
    <g id="ytick_11">
     <g id="line2d_35">
      <path d="M 56.50625 186.287068 
L 335.50625 186.287068 
" clip-path="url(#pc4aa8ffbaa)" style="fill: none; stroke: #b0b0b0; stroke-width: 0.8; stroke-linecap: square"/>
     </g>
     <g id="line2d_36">
      <g>
       <use xlink:href="#mc774a6a61b" x="56.50625" y="186.287068" style="stroke: #000000; stroke-width: 0.6"/>
      </g>
     </g>
    </g>
    <g id="ytick_12">
     <g id="line2d_37">
      <path d="M 56.50625 183.699961 
L 335.50625 183.699961 
" clip-path="url(#pc4aa8ffbaa)" style="fill: none; stroke: #b0b0b0; stroke-width: 0.8; stroke-linecap: square"/>
     </g>
     <g id="line2d_38">
      <g>
       <use xlink:href="#mc774a6a61b" x="56.50625" y="183.699961" style="stroke: #000000; stroke-width: 0.6"/>
      </g>
     </g>
    </g>
    <g id="ytick_13">
     <g id="line2d_39">
      <path d="M 56.50625 181.458907 
L 335.50625 181.458907 
" clip-path="url(#pc4aa8ffbaa)" style="fill: none; stroke: #b0b0b0; stroke-width: 0.8; stroke-linecap: square"/>
     </g>
     <g id="line2d_40">
      <g>
       <use xlink:href="#mc774a6a61b" x="56.50625" y="181.458907" style="stroke: #000000; stroke-width: 0.6"/>
      </g>
     </g>
    </g>
    <g id="ytick_14">
     <g id="line2d_41">
      <path d="M 56.50625 179.482157 
L 335.50625 179.482157 
" clip-path="url(#pc4aa8ffbaa)" style="fill: none; stroke: #b0b0b0; stroke-width: 0.8; stroke-linecap: square"/>
     </g>
     <g id="line2d_42">
      <g>
       <use xlink:href="#mc774a6a61b" x="56.50625" y="179.482157" style="stroke: #000000; stroke-width: 0.6"/>
      </g>
     </g>
    </g>
    <g id="ytick_15">
     <g id="line2d_43">
      <path d="M 56.50625 166.080821 
L 335.50625 166.080821 
" clip-path="url(#pc4aa8ffbaa)" style="fill: none; stroke: #b0b0b0; stroke-width: 0.8; stroke-linecap: square"/>
     </g>
     <g id="line2d_44">
      <g>
       <use xlink:href="#mc774a6a61b" x="56.50625" y="166.080821" style="stroke: #000000; stroke-width: 0.6"/>
      </g>
     </g>
    </g>
    <g id="ytick_16">
     <g id="line2d_45">
      <path d="M 56.50625 159.27591 
L 335.50625 159.27591 
" clip-path="url(#pc4aa8ffbaa)" style="fill: none; stroke: #b0b0b0; stroke-width: 0.8; stroke-linecap: square"/>
     </g>
     <g id="line2d_46">
      <g>
       <use xlink:href="#mc774a6a61b" x="56.50625" y="159.27591" style="stroke: #000000; stroke-width: 0.6"/>
      </g>
     </g>
    </g>
    <g id="ytick_17">
     <g id="line2d_47">
      <path d="M 56.50625 154.447748 
L 335.50625 154.447748 
" clip-path="url(#pc4aa8ffbaa)" style="fill: none; stroke: #b0b0b0; stroke-width: 0.8; stroke-linecap: square"/>
     </g>
     <g id="line2d_48">
      <g>
       <use xlink:href="#mc774a6a61b" x="56.50625" y="154.447748" style="stroke: #000000; stroke-width: 0.6"/>
      </g>
     </g>
    </g>
    <g id="ytick_18">
     <g id="line2d_49">
      <path d="M 56.50625 150.702735 
L 335.50625 150.702735 
" clip-path="url(#pc4aa8ffbaa)" style="fill: none; stroke: #b0b0b0; stroke-width: 0.8; stroke-linecap: square"/>
     </g>
     <g id="line2d_50">
      <g>
       <use xlink:href="#mc774a6a61b" x="56.50625" y="150.702735" style="stroke: #000000; stroke-width: 0.6"/>
      </g>
     </g>
    </g>
    <g id="ytick_19">
     <g id="line2d_51">
      <path d="M 56.50625 147.642837 
L 335.50625 147.642837 
" clip-path="url(#pc4aa8ffbaa)" style="fill: none; stroke: #b0b0b0; stroke-width: 0.8; stroke-linecap: square"/>
     </g>
     <g id="line2d_52">
      <g>
       <use xlink:href="#mc774a6a61b" x="56.50625" y="147.642837" style="stroke: #000000; stroke-width: 0.6"/>
      </g>
     </g>
    </g>
    <g id="ytick_20">
     <g id="line2d_53">
      <path d="M 56.50625 145.05573 
L 335.50625 145.05573 
" clip-path="url(#pc4aa8ffbaa)" style="fill: none; stroke: #b0b0b0; stroke-width: 0.8; stroke-linecap: square"/>
     </g>
     <g id="line2d_54">
      <g>
       <use xlink:href="#mc774a6a61b" x="56.50625" y="145.05573" style="stroke: #000000; stroke-width: 0.6"/>
      </g>
     </g>
    </g>
    <g id="ytick_21">
     <g id="line2d_55">
      <path d="M 56.50625 142.814676 
L 335.50625 142.814676 
" clip-path="url(#pc4aa8ffbaa)" style="fill: none; stroke: #b0b0b0; stroke-width: 0.8; stroke-linecap: square"/>
     </g>
     <g id="line2d_56">
      <g>
       <use xlink:href="#mc774a6a61b" x="56.50625" y="142.814676" style="stroke: #000000; stroke-width: 0.6"/>
      </g>
     </g>
    </g>
    <g id="ytick_22">
     <g id="line2d_57">
      <path d="M 56.50625 140.837926 
L 335.50625 140.837926 
" clip-path="url(#pc4aa8ffbaa)" style="fill: none; stroke: #b0b0b0; stroke-width: 0.8; stroke-linecap: square"/>
     </g>
     <g id="line2d_58">
      <g>
       <use xlink:href="#mc774a6a61b" x="56.50625" y="140.837926" style="stroke: #000000; stroke-width: 0.6"/>
      </g>
     </g>
    </g>
    <g id="ytick_23">
     <g id="line2d_59">
      <path d="M 56.50625 127.43659 
L 335.50625 127.43659 
" clip-path="url(#pc4aa8ffbaa)" style="fill: none; stroke: #b0b0b0; stroke-width: 0.8; stroke-linecap: square"/>
     </g>
     <g id="line2d_60">
      <g>
       <use xlink:href="#mc774a6a61b" x="56.50625" y="127.43659" style="stroke: #000000; stroke-width: 0.6"/>
      </g>
     </g>
    </g>
    <g id="ytick_24">
     <g id="line2d_61">
      <path d="M 56.50625 120.631679 
L 335.50625 120.631679 
" clip-path="url(#pc4aa8ffbaa)" style="fill: none; stroke: #b0b0b0; stroke-width: 0.8; stroke-linecap: square"/>
     </g>
     <g id="line2d_62">
      <g>
       <use xlink:href="#mc774a6a61b" x="56.50625" y="120.631679" style="stroke: #000000; stroke-width: 0.6"/>
      </g>
     </g>
    </g>
    <g id="ytick_25">
     <g id="line2d_63">
      <path d="M 56.50625 115.803517 
L 335.50625 115.803517 
" clip-path="url(#pc4aa8ffbaa)" style="fill: none; stroke: #b0b0b0; stroke-width: 0.8; stroke-linecap: square"/>
     </g>
     <g id="line2d_64">
      <g>
       <use xlink:href="#mc774a6a61b" x="56.50625" y="115.803517" style="stroke: #000000; stroke-width: 0.6"/>
      </g>
     </g>
    </g>
    <g id="ytick_26">
     <g id="line2d_65">
      <path d="M 56.50625 112.058504 
L 335.50625 112.058504 
" clip-path="url(#pc4aa8ffbaa)" style="fill: none; stroke: #b0b0b0; stroke-width: 0.8; stroke-linecap: square"/>
     </g>
     <g id="line2d_66">
      <g>
       <use xlink:href="#mc774a6a61b" x="56.50625" y="112.058504" style="stroke: #000000; stroke-width: 0.6"/>
      </g>
     </g>
    </g>
    <g id="ytick_27">
     <g id="line2d_67">
      <path d="M 56.50625 108.998606 
L 335.50625 108.998606 
" clip-path="url(#pc4aa8ffbaa)" style="fill: none; stroke: #b0b0b0; stroke-width: 0.8; stroke-linecap: square"/>
     </g>
     <g id="line2d_68">
      <g>
       <use xlink:href="#mc774a6a61b" x="56.50625" y="108.998606" style="stroke: #000000; stroke-width: 0.6"/>
      </g>
     </g>
    </g>
    <g id="ytick_28">
     <g id="line2d_69">
      <path d="M 56.50625 106.411499 
L 335.50625 106.411499 
" clip-path="url(#pc4aa8ffbaa)" style="fill: none; stroke: #b0b0b0; stroke-width: 0.8; stroke-linecap: square"/>
     </g>
     <g id="line2d_70">
      <g>
       <use xlink:href="#mc774a6a61b" x="56.50625" y="106.411499" style="stroke: #000000; stroke-width: 0.6"/>
      </g>
     </g>
    </g>
    <g id="ytick_29">
     <g id="line2d_71">
      <path d="M 56.50625 104.170444 
L 335.50625 104.170444 
" clip-path="url(#pc4aa8ffbaa)" style="fill: none; stroke: #b0b0b0; stroke-width: 0.8; stroke-linecap: square"/>
     </g>
     <g id="line2d_72">
      <g>
       <use xlink:href="#mc774a6a61b" x="56.50625" y="104.170444" style="stroke: #000000; stroke-width: 0.6"/>
      </g>
     </g>
    </g>
    <g id="ytick_30">
     <g id="line2d_73">
      <path d="M 56.50625 102.193695 
L 335.50625 102.193695 
" clip-path="url(#pc4aa8ffbaa)" style="fill: none; stroke: #b0b0b0; stroke-width: 0.8; stroke-linecap: square"/>
     </g>
     <g id="line2d_74">
      <g>
       <use xlink:href="#mc774a6a61b" x="56.50625" y="102.193695" style="stroke: #000000; stroke-width: 0.6"/>
      </g>
     </g>
    </g>
    <g id="ytick_31">
     <g id="line2d_75">
      <path d="M 56.50625 88.792359 
L 335.50625 88.792359 
" clip-path="url(#pc4aa8ffbaa)" style="fill: none; stroke: #b0b0b0; stroke-width: 0.8; stroke-linecap: square"/>
     </g>
     <g id="line2d_76">
      <g>
       <use xlink:href="#mc774a6a61b" x="56.50625" y="88.792359" style="stroke: #000000; stroke-width: 0.6"/>
      </g>
     </g>
    </g>
    <g id="ytick_32">
     <g id="line2d_77">
      <path d="M 56.50625 81.987447 
L 335.50625 81.987447 
" clip-path="url(#pc4aa8ffbaa)" style="fill: none; stroke: #b0b0b0; stroke-width: 0.8; stroke-linecap: square"/>
     </g>
     <g id="line2d_78">
      <g>
       <use xlink:href="#mc774a6a61b" x="56.50625" y="81.987447" style="stroke: #000000; stroke-width: 0.6"/>
      </g>
     </g>
    </g>
    <g id="ytick_33">
     <g id="line2d_79">
      <path d="M 56.50625 77.159286 
L 335.50625 77.159286 
" clip-path="url(#pc4aa8ffbaa)" style="fill: none; stroke: #b0b0b0; stroke-width: 0.8; stroke-linecap: square"/>
     </g>
     <g id="line2d_80">
      <g>
       <use xlink:href="#mc774a6a61b" x="56.50625" y="77.159286" style="stroke: #000000; stroke-width: 0.6"/>
      </g>
     </g>
    </g>
    <g id="ytick_34">
     <g id="line2d_81">
      <path d="M 56.50625 73.414273 
L 335.50625 73.414273 
" clip-path="url(#pc4aa8ffbaa)" style="fill: none; stroke: #b0b0b0; stroke-width: 0.8; stroke-linecap: square"/>
     </g>
     <g id="line2d_82">
      <g>
       <use xlink:href="#mc774a6a61b" x="56.50625" y="73.414273" style="stroke: #000000; stroke-width: 0.6"/>
      </g>
     </g>
    </g>
    <g id="ytick_35">
     <g id="line2d_83">
      <path d="M 56.50625 70.354375 
L 335.50625 70.354375 
" clip-path="url(#pc4aa8ffbaa)" style="fill: none; stroke: #b0b0b0; stroke-width: 0.8; stroke-linecap: square"/>
     </g>
     <g id="line2d_84">
      <g>
       <use xlink:href="#mc774a6a61b" x="56.50625" y="70.354375" style="stroke: #000000; stroke-width: 0.6"/>
      </g>
     </g>
    </g>
    <g id="ytick_36">
     <g id="line2d_85">
      <path d="M 56.50625 67.767267 
L 335.50625 67.767267 
" clip-path="url(#pc4aa8ffbaa)" style="fill: none; stroke: #b0b0b0; stroke-width: 0.8; stroke-linecap: square"/>
     </g>
     <g id="line2d_86">
      <g>
       <use xlink:href="#mc774a6a61b" x="56.50625" y="67.767267" style="stroke: #000000; stroke-width: 0.6"/>
      </g>
     </g>
    </g>
    <g id="ytick_37">
     <g id="line2d_87">
      <path d="M 56.50625 65.526213 
L 335.50625 65.526213 
" clip-path="url(#pc4aa8ffbaa)" style="fill: none; stroke: #b0b0b0; stroke-width: 0.8; stroke-linecap: square"/>
     </g>
     <g id="line2d_88">
      <g>
       <use xlink:href="#mc774a6a61b" x="56.50625" y="65.526213" style="stroke: #000000; stroke-width: 0.6"/>
      </g>
     </g>
    </g>
    <g id="ytick_38">
     <g id="line2d_89">
      <path d="M 56.50625 63.549463 
L 335.50625 63.549463 
" clip-path="url(#pc4aa8ffbaa)" style="fill: none; stroke: #b0b0b0; stroke-width: 0.8; stroke-linecap: square"/>
     </g>
     <g id="line2d_90">
      <g>
       <use xlink:href="#mc774a6a61b" x="56.50625" y="63.549463" style="stroke: #000000; stroke-width: 0.6"/>
      </g>
     </g>
    </g>
    <g id="ytick_39">
     <g id="line2d_91">
      <path d="M 56.50625 50.148128 
L 335.50625 50.148128 
" clip-path="url(#pc4aa8ffbaa)" style="fill: none; stroke: #b0b0b0; stroke-width: 0.8; stroke-linecap: square"/>
     </g>
     <g id="line2d_92">
      <g>
       <use xlink:href="#mc774a6a61b" x="56.50625" y="50.148128" style="stroke: #000000; stroke-width: 0.6"/>
      </g>
     </g>
    </g>
    <g id="ytick_40">
     <g id="line2d_93">
      <path d="M 56.50625 43.343216 
L 335.50625 43.343216 
" clip-path="url(#pc4aa8ffbaa)" style="fill: none; stroke: #b0b0b0; stroke-width: 0.8; stroke-linecap: square"/>
     </g>
     <g id="line2d_94">
      <g>
       <use xlink:href="#mc774a6a61b" x="56.50625" y="43.343216" style="stroke: #000000; stroke-width: 0.6"/>
      </g>
     </g>
    </g>
    <g id="ytick_41">
     <g id="line2d_95">
      <path d="M 56.50625 38.515055 
L 335.50625 38.515055 
" clip-path="url(#pc4aa8ffbaa)" style="fill: none; stroke: #b0b0b0; stroke-width: 0.8; stroke-linecap: square"/>
     </g>
     <g id="line2d_96">
      <g>
       <use xlink:href="#mc774a6a61b" x="56.50625" y="38.515055" style="stroke: #000000; stroke-width: 0.6"/>
      </g>
     </g>
    </g>
    <g id="ytick_42">
     <g id="line2d_97">
      <path d="M 56.50625 34.770042 
L 335.50625 34.770042 
" clip-path="url(#pc4aa8ffbaa)" style="fill: none; stroke: #b0b0b0; stroke-width: 0.8; stroke-linecap: square"/>
     </g>
     <g id="line2d_98">
      <g>
       <use xlink:href="#mc774a6a61b" x="56.50625" y="34.770042" style="stroke: #000000; stroke-width: 0.6"/>
      </g>
     </g>
    </g>
    <g id="ytick_43">
     <g id="line2d_99">
      <path d="M 56.50625 31.710144 
L 335.50625 31.710144 
" clip-path="url(#pc4aa8ffbaa)" style="fill: none; stroke: #b0b0b0; stroke-width: 0.8; stroke-linecap: square"/>
     </g>
     <g id="line2d_100">
      <g>
       <use xlink:href="#mc774a6a61b" x="56.50625" y="31.710144" style="stroke: #000000; stroke-width: 0.6"/>
      </g>
     </g>
    </g>
    <g id="ytick_44">
     <g id="line2d_101">
      <path d="M 56.50625 29.123036 
L 335.50625 29.123036 
" clip-path="url(#pc4aa8ffbaa)" style="fill: none; stroke: #b0b0b0; stroke-width: 0.8; stroke-linecap: square"/>
     </g>
     <g id="line2d_102">
      <g>
       <use xlink:href="#mc774a6a61b" x="56.50625" y="29.123036" style="stroke: #000000; stroke-width: 0.6"/>
      </g>
     </g>
    </g>
    <g id="ytick_45">
     <g id="line2d_103">
      <path d="M 56.50625 26.881982 
L 335.50625 26.881982 
" clip-path="url(#pc4aa8ffbaa)" style="fill: none; stroke: #b0b0b0; stroke-width: 0.8; stroke-linecap: square"/>
     </g>
     <g id="line2d_104">
      <g>
       <use xlink:href="#mc774a6a61b" x="56.50625" y="26.881982" style="stroke: #000000; stroke-width: 0.6"/>
      </g>
     </g>
    </g>
    <g id="ytick_46">
     <g id="line2d_105">
      <path d="M 56.50625 24.905232 
L 335.50625 24.905232 
" clip-path="url(#pc4aa8ffbaa)" style="fill: none; stroke: #b0b0b0; stroke-width: 0.8; stroke-linecap: square"/>
     </g>
     <g id="line2d_106">
      <g>
       <use xlink:href="#mc774a6a61b" x="56.50625" y="24.905232" style="stroke: #000000; stroke-width: 0.6"/>
      </g>
     </g>
    </g>
    <g id="text_15">
     <!-- % probability of living to age -->
     <g transform="translate(14.798438 191.333437)rotate(-90)scale(0.1 -0.1)">
      <defs>
       <path id="DejaVuSans-25" d="M 4653 2053 
Q 4381 2053 4226 1822 
Q 4072 1591 4072 1178 
Q 4072 772 4226 539 
Q 4381 306 4653 306 
Q 4919 306 5073 539 
Q 5228 772 5228 1178 
Q 5228 1588 5073 1820 
Q 4919 2053 4653 2053 
z
M 4653 2450 
Q 5147 2450 5437 2106 
Q 5728 1763 5728 1178 
Q 5728 594 5436 251 
Q 5144 -91 4653 -91 
Q 4153 -91 3862 251 
Q 3572 594 3572 1178 
Q 3572 1766 3864 2108 
Q 4156 2450 4653 2450 
z
M 1428 4353 
Q 1159 4353 1004 4120 
Q 850 3888 850 3481 
Q 850 3069 1003 2837 
Q 1156 2606 1428 2606 
Q 1700 2606 1854 2837 
Q 2009 3069 2009 3481 
Q 2009 3884 1853 4118 
Q 1697 4353 1428 4353 
z
M 4250 4750 
L 4750 4750 
L 1831 -91 
L 1331 -91 
L 4250 4750 
z
M 1428 4750 
Q 1922 4750 2215 4408 
Q 2509 4066 2509 3481 
Q 2509 2891 2217 2550 
Q 1925 2209 1428 2209 
Q 931 2209 642 2551 
Q 353 2894 353 3481 
Q 353 4063 643 4406 
Q 934 4750 1428 4750 
z
" transform="scale(0.015625)"/>
       <path id="DejaVuSans-20" transform="scale(0.015625)"/>
       <path id="DejaVuSans-70" d="M 1159 525 
L 1159 -1331 
L 581 -1331 
L 581 3500 
L 1159 3500 
L 1159 2969 
Q 1341 3281 1617 3432 
Q 1894 3584 2278 3584 
Q 2916 3584 3314 3078 
Q 3713 2572 3713 1747 
Q 3713 922 3314 415 
Q 2916 -91 2278 -91 
Q 1894 -91 1617 61 
Q 1341 213 1159 525 
z
M 3116 1747 
Q 3116 2381 2855 2742 
Q 2594 3103 2138 3103 
Q 1681 3103 1420 2742 
Q 1159 2381 1159 1747 
Q 1159 1113 1420 752 
Q 1681 391 2138 391 
Q 2594 391 2855 752 
Q 3116 1113 3116 1747 
z
" transform="scale(0.015625)"/>
       <path id="DejaVuSans-72" d="M 2631 2963 
Q 2534 3019 2420 3045 
Q 2306 3072 2169 3072 
Q 1681 3072 1420 2755 
Q 1159 2438 1159 1844 
L 1159 0 
L 581 0 
L 581 3500 
L 1159 3500 
L 1159 2956 
Q 1341 3275 1631 3429 
Q 1922 3584 2338 3584 
Q 2397 3584 2469 3576 
Q 2541 3569 2628 3553 
L 2631 2963 
z
" transform="scale(0.015625)"/>
       <path id="DejaVuSans-6f" d="M 1959 3097 
Q 1497 3097 1228 2736 
Q 959 2375 959 1747 
Q 959 1119 1226 758 
Q 1494 397 1959 397 
Q 2419 397 2687 759 
Q 2956 1122 2956 1747 
Q 2956 2369 2687 2733 
Q 2419 3097 1959 3097 
z
M 1959 3584 
Q 2709 3584 3137 3096 
Q 3566 2609 3566 1747 
Q 3566 888 3137 398 
Q 2709 -91 1959 -91 
Q 1206 -91 779 398 
Q 353 888 353 1747 
Q 353 2609 779 3096 
Q 1206 3584 1959 3584 
z
" transform="scale(0.015625)"/>
       <path id="DejaVuSans-62" d="M 3116 1747 
Q 3116 2381 2855 2742 
Q 2594 3103 2138 3103 
Q 1681 3103 1420 2742 
Q 1159 2381 1159 1747 
Q 1159 1113 1420 752 
Q 1681 391 2138 391 
Q 2594 391 2855 752 
Q 3116 1113 3116 1747 
z
M 1159 2969 
Q 1341 3281 1617 3432 
Q 1894 3584 2278 3584 
Q 2916 3584 3314 3078 
Q 3713 2572 3713 1747 
Q 3713 922 3314 415 
Q 2916 -91 2278 -91 
Q 1894 -91 1617 61 
Q 1341 213 1159 525 
L 1159 0 
L 581 0 
L 581 4863 
L 1159 4863 
L 1159 2969 
z
" transform="scale(0.015625)"/>
       <path id="DejaVuSans-69" d="M 603 3500 
L 1178 3500 
L 1178 0 
L 603 0 
L 603 3500 
z
M 603 4863 
L 1178 4863 
L 1178 4134 
L 603 4134 
L 603 4863 
z
" transform="scale(0.015625)"/>
       <path id="DejaVuSans-6c" d="M 603 4863 
L 1178 4863 
L 1178 0 
L 603 0 
L 603 4863 
z
" transform="scale(0.015625)"/>
       <path id="DejaVuSans-74" d="M 1172 4494 
L 1172 3500 
L 2356 3500 
L 2356 3053 
L 1172 3053 
L 1172 1153 
Q 1172 725 1289 603 
Q 1406 481 1766 481 
L 2356 481 
L 2356 0 
L 1766 0 
Q 1100 0 847 248 
Q 594 497 594 1153 
L 594 3053 
L 172 3053 
L 172 3500 
L 594 3500 
L 594 4494 
L 1172 4494 
z
" transform="scale(0.015625)"/>
       <path id="DejaVuSans-79" d="M 2059 -325 
Q 1816 -950 1584 -1140 
Q 1353 -1331 966 -1331 
L 506 -1331 
L 506 -850 
L 844 -850 
Q 1081 -850 1212 -737 
Q 1344 -625 1503 -206 
L 1606 56 
L 191 3500 
L 800 3500 
L 1894 763 
L 2988 3500 
L 3597 3500 
L 2059 -325 
z
" transform="scale(0.015625)"/>
       <path id="DejaVuSans-66" d="M 2375 4863 
L 2375 4384 
L 1825 4384 
Q 1516 4384 1395 4259 
Q 1275 4134 1275 3809 
L 1275 3500 
L 2222 3500 
L 2222 3053 
L 1275 3053 
L 1275 0 
L 697 0 
L 697 3053 
L 147 3053 
L 147 3500 
L 697 3500 
L 697 3744 
Q 697 4328 969 4595 
Q 1241 4863 1831 4863 
L 2375 4863 
z
" transform="scale(0.015625)"/>
       <path id="DejaVuSans-76" d="M 191 3500 
L 800 3500 
L 1894 563 
L 2988 3500 
L 3597 3500 
L 2284 0 
L 1503 0 
L 191 3500 
z
" transform="scale(0.015625)"/>
       <path id="DejaVuSans-6e" d="M 3513 2113 
L 3513 0 
L 2938 0 
L 2938 2094 
Q 2938 2591 2744 2837 
Q 2550 3084 2163 3084 
Q 1697 3084 1428 2787 
Q 1159 2491 1159 1978 
L 1159 0 
L 581 0 
L 581 3500 
L 1159 3500 
L 1159 2956 
Q 1366 3272 1645 3428 
Q 1925 3584 2291 3584 
Q 2894 3584 3203 3211 
Q 3513 2838 3513 2113 
z
" transform="scale(0.015625)"/>
      </defs>
      <use xlink:href="#DejaVuSans-25"/>
      <use xlink:href="#DejaVuSans-20" x="95.019531"/>
      <use xlink:href="#DejaVuSans-70" x="126.806641"/>
      <use xlink:href="#DejaVuSans-72" x="190.283203"/>
      <use xlink:href="#DejaVuSans-6f" x="229.146484"/>
      <use xlink:href="#DejaVuSans-62" x="290.328125"/>
      <use xlink:href="#DejaVuSans-61" x="353.804688"/>
      <use xlink:href="#DejaVuSans-62" x="415.083984"/>
      <use xlink:href="#DejaVuSans-69" x="478.560547"/>
      <use xlink:href="#DejaVuSans-6c" x="506.34375"/>
      <use xlink:href="#DejaVuSans-69" x="534.126953"/>
      <use xlink:href="#DejaVuSans-74" x="561.910156"/>
      <use xlink:href="#DejaVuSans-79" x="601.119141"/>
      <use xlink:href="#DejaVuSans-20" x="660.298828"/>
      <use xlink:href="#DejaVuSans-6f" x="692.085938"/>
      <use xlink:href="#DejaVuSans-66" x="753.267578"/>
      <use xlink:href="#DejaVuSans-20" x="788.472656"/>
      <use xlink:href="#DejaVuSans-6c" x="820.259766"/>
      <use xlink:href="#DejaVuSans-69" x="848.042969"/>
      <use xlink:href="#DejaVuSans-76" x="875.826172"/>
      <use xlink:href="#DejaVuSans-69" x="935.005859"/>
      <use xlink:href="#DejaVuSans-6e" x="962.789062"/>
      <use xlink:href="#DejaVuSans-67" x="1026.167969"/>
      <use xlink:href="#DejaVuSans-20" x="1089.644531"/>
      <use xlink:href="#DejaVuSans-74" x="1121.431641"/>
      <use xlink:href="#DejaVuSans-6f" x="1160.640625"/>
      <use xlink:href="#DejaVuSans-20" x="1221.822266"/>
      <use xlink:href="#DejaVuSans-61" x="1253.609375"/>
      <use xlink:href="#DejaVuSans-67" x="1314.888672"/>
      <use xlink:href="#DejaVuSans-65" x="1378.365234"/>
     </g>
    </g>
   </g>
   <g id="line2d_107">
    <path d="M 56.50625 23.136969 
L 58.83125 23.156281 
L 61.15625 23.158129 
L 63.48125 23.159473 
L 65.80625 23.160482 
L 68.13125 23.161154 
L 70.45625 23.161994 
L 72.78125 23.162667 
L 75.10625 23.163339 
L 77.43125 23.164012 
L 79.75625 23.164348 
L 82.08125 23.164684 
L 84.40625 23.164852 
L 86.73125 23.165525 
L 89.05625 23.166701 
L 91.38125 23.168887 
L 93.70625 23.17225 
L 96.03125 23.176456 
L 98.35625 23.181503 
L 100.68125 23.187225 
L 103.00625 23.193287 
L 105.33125 23.199687 
L 107.65625 23.206258 
L 109.98125 23.213169 
L 112.30625 23.220083 
L 114.63125 23.22683 
L 116.95625 23.233243 
L 119.28125 23.239659 
L 121.60625 23.245908 
L 123.93125 23.252497 
L 126.25625 23.259258 
L 128.58125 23.26636 
L 130.90625 23.273972 
L 133.23125 23.282096 
L 135.55625 23.290902 
L 137.88125 23.300389 
L 140.20625 23.31073 
L 142.53125 23.322096 
L 144.85625 23.334488 
L 147.18125 23.347909 
L 149.50625 23.362531 
L 151.83125 23.378358 
L 154.15625 23.395563 
L 156.48125 23.41398 
L 158.80625 23.433784 
L 161.13125 23.45498 
L 163.45625 23.477572 
L 165.78125 23.50191 
L 168.10625 23.52783 
L 170.43125 23.555165 
L 172.75625 23.583925 
L 175.08125 23.61446 
L 177.40625 23.647127 
L 179.73125 23.682285 
L 182.05625 23.720644 
L 184.38125 23.762923 
L 186.70625 23.809851 
L 189.03125 23.86164 
L 191.35625 23.918689 
L 193.68125 23.981225 
L 196.00625 24.049488 
L 198.33125 24.123903 
L 200.65625 24.205981 
L 202.98125 24.297273 
L 205.30625 24.400098 
L 207.63125 24.516671 
L 209.95625 24.64801 
L 212.28125 24.79557 
L 214.60625 24.959211 
L 216.93125 25.139207 
L 219.25625 25.335879 
L 221.58125 25.551542 
L 223.90625 25.788085 
L 226.23125 26.046363 
L 228.55625 26.326732 
L 230.88125 26.63066 
L 233.20625 26.963788 
L 235.53125 27.331006 
L 237.85625 27.733343 
L 240.18125 28.170463 
L 242.50625 28.645584 
L 244.83125 29.163604 
L 247.15625 29.737124 
L 249.48125 30.385906 
L 251.80625 31.134947 
L 254.13125 32.005592 
L 256.45625 33.012523 
L 258.78125 34.164816 
L 261.10625 35.469148 
L 263.43125 36.931112 
L 265.75625 38.559168 
L 268.08125 40.364164 
L 270.40625 42.360541 
L 272.73125 44.567185 
L 275.05625 47.005219 
L 277.38125 49.699363 
L 279.70625 52.654034 
L 282.03125 55.868973 
L 284.35625 59.338084 
L 286.68125 63.049758 
L 289.00625 66.989575 
L 291.33125 71.171121 
L 293.65625 75.613183 
L 295.98125 80.337078 
L 298.30625 85.365869 
L 300.63125 90.719881 
L 302.95625 96.427237 
L 305.28125 102.532756 
L 307.60625 109.026601 
L 309.93125 116.014627 
L 312.25625 123.49138 
L 314.58125 131.499271 
L 316.90625 140.108116 
L 319.23125 149.4111 
L 321.55625 159.27591 
L 323.88125 169.825834 
L 326.20625 181.458907 
L 328.53125 193.09198 
L 330.85625 204.725052 
L 333.18125 216.358125 
" clip-path="url(#pc4aa8ffbaa)" style="fill: none; stroke-dasharray: 5.55,2.4; stroke-dashoffset: 0; stroke: #000000; stroke-width: 1.5"/>
   </g>
   <g id="line2d_108">
    <path d="M 56.50625 23.136969 
L 58.83125 23.18184 
L 61.15625 23.185374 
L 63.48125 23.18773 
L 65.80625 23.189751 
L 68.13125 23.191098 
L 70.45625 23.192445 
L 72.78125 23.193792 
L 75.10625 23.194971 
L 77.43125 23.196149 
L 79.75625 23.196992 
L 82.08125 23.197834 
L 84.40625 23.198508 
L 86.73125 23.199687 
L 89.05625 23.201877 
L 91.38125 23.205415 
L 93.70625 23.210303 
L 96.03125 23.21671 
L 98.35625 23.224131 
L 100.68125 23.232568 
L 103.00625 23.241348 
L 105.33125 23.250807 
L 107.65625 23.26078 
L 109.98125 23.270927 
L 112.30625 23.281081 
L 114.63125 23.291071 
L 116.95625 23.300728 
L 119.28125 23.310052 
L 121.60625 23.319381 
L 123.93125 23.328885 
L 126.25625 23.338904 
L 128.58125 23.349608 
L 130.90625 23.36066 
L 133.23125 23.37274 
L 135.55625 23.385681 
L 137.88125 23.399654 
L 140.20625 23.415174 
L 142.53125 23.431905 
L 144.85625 23.450191 
L 147.18125 23.470038 
L 149.50625 23.491622 
L 151.83125 23.514951 
L 154.15625 23.540374 
L 156.48125 23.567559 
L 158.80625 23.596857 
L 161.13125 23.628107 
L 163.45625 23.661493 
L 165.78125 23.697375 
L 168.10625 23.735421 
L 170.43125 23.775645 
L 172.75625 23.817889 
L 175.08125 23.862516 
L 177.40625 23.910075 
L 179.73125 23.961294 
L 182.05625 24.017091 
L 184.38125 24.078043 
L 186.70625 24.145276 
L 189.03125 24.219402 
L 191.35625 24.30105 
L 193.68125 24.39051 
L 196.00625 24.488452 
L 198.33125 24.595936 
L 200.65625 24.714067 
L 202.98125 24.845108 
L 205.30625 24.990857 
L 207.63125 25.153205 
L 209.95625 25.33454 
L 212.28125 25.535852 
L 214.60625 25.75804 
L 216.93125 26.001912 
L 219.25625 26.268381 
L 221.58125 26.560745 
L 223.90625 26.881982 
L 226.23125 27.232822 
L 228.55625 27.614146 
L 230.88125 28.02768 
L 233.20625 28.48048 
L 235.53125 28.97932 
L 237.85625 29.527056 
L 240.18125 30.125819 
L 242.50625 30.781637 
L 244.83125 31.502485 
L 247.15625 32.302567 
L 249.48125 33.202524 
L 251.80625 34.227096 
L 254.13125 35.398958 
L 256.45625 36.735257 
L 258.78125 38.250718 
L 261.10625 39.957371 
L 263.43125 41.868181 
L 265.75625 43.997474 
L 268.08125 46.363553 
L 270.40625 48.987537 
L 272.73125 51.893097 
L 275.05625 55.106582 
L 277.38125 58.659877 
L 279.70625 62.559228 
L 282.03125 66.807446 
L 284.35625 71.398781 
L 286.68125 76.324466 
L 289.00625 81.56212 
L 291.33125 87.139455 
L 293.65625 93.091879 
L 295.98125 99.43168 
L 298.30625 106.220781 
L 300.63125 113.457896 
L 302.95625 121.25862 
L 305.28125 129.582014 
L 307.60625 138.573578 
L 309.93125 148.211806 
L 312.25625 158.725599 
L 314.58125 169.825834 
L 316.90625 181.458907 
L 319.23125 197.920141 
L 321.55625 216.358125 
L 323.88125 216.358125 
L 323.883577 254.914375 
" clip-path="url(#pc4aa8ffbaa)" style="fill: none; stroke: #000000; stroke-width: 1.5; stroke-linecap: square"/>
   </g>
   <g id="line2d_109">
    <path d="M 56.50625 23.136969 
L 58.83125 23.25368 
L 61.15625 23.261963 
L 63.48125 23.267713 
L 65.80625 23.271773 
L 68.13125 23.275157 
L 70.45625 23.278203 
L 72.78125 23.281081 
L 75.10625 23.283789 
L 77.43125 23.286329 
L 79.75625 23.28853 
L 82.08125 23.290563 
L 84.40625 23.292595 
L 86.73125 23.295475 
L 89.05625 23.299542 
L 91.38125 23.305474 
L 93.70625 23.313613 
L 96.03125 23.323453 
L 98.35625 23.335167 
L 100.68125 23.347909 
L 103.00625 23.36168 
L 105.33125 23.376315 
L 107.65625 23.391814 
L 109.98125 23.407668 
L 112.30625 23.423708 
L 114.63125 23.439422 
L 116.95625 23.45498 
L 119.28125 23.470209 
L 121.60625 23.485281 
L 123.93125 23.50071 
L 126.25625 23.516667 
L 128.58125 23.533499 
L 130.90625 23.550864 
L 133.23125 23.569281 
L 135.55625 23.588924 
L 137.88125 23.609971 
L 140.20625 23.632946 
L 142.53125 23.657511 
L 144.85625 23.684366 
L 147.18125 23.713347 
L 149.50625 23.744815 
L 151.83125 23.778784 
L 154.15625 23.815791 
L 156.48125 23.855858 
L 158.80625 23.899358 
L 161.13125 23.946317 
L 163.45625 23.997293 
L 165.78125 24.052678 
L 168.10625 24.112159 
L 170.43125 24.175958 
L 172.75625 24.243765 
L 175.08125 24.316167 
L 177.40625 24.393947 
L 179.73125 24.478268 
L 182.05625 24.570143 
L 184.38125 24.670797 
L 186.70625 24.781495 
L 189.03125 24.902995 
L 191.35625 25.036089 
L 193.68125 25.181618 
L 196.00625 25.340472 
L 198.33125 25.514181 
L 200.65625 25.704564 
L 202.98125 25.912965 
L 205.30625 26.140839 
L 207.63125 26.390175 
L 209.95625 26.663346 
L 212.28125 26.962945 
L 214.60625 27.290761 
L 216.93125 27.649246 
L 219.25625 28.040937 
L 221.58125 28.47033 
L 223.90625 28.941566 
L 226.23125 29.456716 
L 228.55625 30.01749 
L 230.88125 30.627257 
L 233.20625 31.293272 
L 235.53125 32.023821 
L 237.85625 32.825845 
L 240.18125 33.70715 
L 242.50625 34.676653 
L 244.83125 35.746122 
L 247.15625 36.929204 
L 249.48125 38.23957 
L 251.80625 39.692452 
L 254.13125 41.304422 
L 256.45625 43.09279 
L 258.78125 45.076706 
L 261.10625 47.276693 
L 263.43125 49.714893 
L 265.75625 52.414135 
L 268.08125 55.40005 
L 270.40625 58.69894 
L 272.73125 62.337442 
L 275.05625 66.345162 
L 277.38125 70.753483 
L 279.70625 75.574962 
L 282.03125 80.820593 
L 284.35625 86.490576 
L 286.68125 92.579382 
L 289.00625 99.087241 
L 291.33125 106.032206 
L 293.65625 113.49442 
L 295.98125 121.433748 
L 298.30625 130.065707 
L 300.63125 139.238337 
L 302.95625 149.103147 
L 305.28125 159.844879 
L 307.60625 172.066888 
L 309.93125 183.699961 
L 312.25625 197.920141 
L 314.58125 216.358125 
L 314.583577 254.914375 
" clip-path="url(#pc4aa8ffbaa)" style="fill: none; stroke-dasharray: 1.5,2.475; stroke-dashoffset: 0; stroke: #000000; stroke-width: 1.5"/>
   </g>
   <g id="line2d_110">
    <path d="M 56.50625 23.136969 
L 58.83125 25.535077 
L 61.15625 26.170572 
L 63.48125 26.487431 
L 65.80625 26.71104 
L 68.13125 26.889116 
L 70.45625 27.02017 
L 72.78125 27.114349 
L 75.10625 27.182128 
L 77.43125 27.233464 
L 79.75625 27.277224 
L 82.08125 27.320236 
L 84.40625 27.366597 
L 86.73125 27.417635 
L 89.05625 27.472088 
L 91.38125 27.529334 
L 93.70625 27.591371 
L 96.03125 27.660888 
L 98.35625 27.738641 
L 100.68125 27.825186 
L 103.00625 27.921105 
L 105.33125 28.026781 
L 107.65625 28.142397 
L 109.98125 28.265191 
L 112.30625 28.391416 
L 114.63125 28.518366 
L 116.95625 28.645351 
L 119.28125 28.772835 
L 121.60625 28.901531 
L 123.93125 29.033367 
L 126.25625 29.169373 
L 128.58125 29.309884 
L 130.90625 29.454271 
L 133.23125 29.602131 
L 135.55625 29.753296 
L 137.88125 29.907092 
L 140.20625 30.063831 
L 142.53125 30.22384 
L 144.85625 30.387199 
L 147.18125 30.553469 
L 149.50625 30.722984 
L 151.83125 30.896095 
L 154.15625 31.073164 
L 156.48125 31.255388 
L 158.80625 31.443191 
L 161.13125 31.637853 
L 163.45625 31.840154 
L 165.78125 32.050918 
L 168.10625 32.271591 
L 170.43125 32.502827 
L 172.75625 32.745919 
L 175.08125 33.002551 
L 177.40625 33.273604 
L 179.73125 33.56097 
L 182.05625 33.865743 
L 184.38125 34.190414 
L 186.70625 34.536379 
L 189.03125 34.906199 
L 191.35625 35.299935 
L 193.68125 35.71804 
L 196.00625 36.161773 
L 198.33125 36.634429 
L 200.65625 37.139327 
L 202.98125 37.680235 
L 205.30625 38.259807 
L 207.63125 38.883255 
L 209.95625 39.554401 
L 212.28125 40.278657 
L 214.60625 41.063396 
L 216.93125 41.91744 
L 219.25625 42.849304 
L 221.58125 43.868837 
L 223.90625 44.983301 
L 226.23125 46.192307 
L 228.55625 47.493067 
L 230.88125 48.889158 
L 233.20625 50.383898 
L 235.53125 51.993958 
L 237.85625 53.746928 
L 240.18125 55.681229 
L 242.50625 57.822729 
L 244.83125 60.196876 
L 247.15625 62.808945 
L 249.48125 65.65256 
L 251.80625 68.706541 
L 254.13125 71.964876 
L 256.45625 75.438081 
L 258.78125 79.152827 
L 261.10625 83.151348 
L 263.43125 87.469673 
L 265.75625 92.153685 
L 268.08125 97.24013 
L 270.40625 102.762663 
L 272.73125 108.721195 
L 275.05625 115.145277 
L 277.38125 122.03107 
L 279.70625 129.298352 
L 282.03125 137.018487 
L 284.35625 145.297216 
L 286.68125 154.033333 
L 289.00625 163.7352 
L 291.33125 173.310641 
L 293.65625 183.699961 
L 295.98125 197.920141 
L 298.30625 204.725052 
L 300.63125 216.358125 
L 300.633577 254.914375 
" clip-path="url(#pc4aa8ffbaa)" style="fill: none; stroke-dasharray: 9.6,2.4,1.5,2.4; stroke-dashoffset: 0; stroke: #000000; stroke-width: 1.5"/>
   </g>
   <g id="patch_3">
    <path d="M 56.50625 216.358125 
L 56.50625 22.318125 
" style="fill: none; stroke: #000000; stroke-width: 0.8; stroke-linejoin: miter; stroke-linecap: square"/>
   </g>
   <g id="patch_4">
    <path d="M 335.50625 216.358125 
L 335.50625 22.318125 
" style="fill: none; stroke: #000000; stroke-width: 0.8; stroke-linejoin: miter; stroke-linecap: square"/>
   </g>
   <g id="patch_5">
    <path d="M 56.50625 216.358125 
L 335.50625 216.358125 
" style="fill: none; stroke: #000000; stroke-width: 0.8; stroke-linejoin: miter; stroke-linecap: square"/>
   </g>
   <g id="patch_6">
    <path d="M 56.50625 22.318125 
L 335.50625 22.318125 
" style="fill: none; stroke: #000000; stroke-width: 0.8; stroke-linejoin: miter; stroke-linecap: square"/>
   </g>
   <g id="text_16">
    <!-- Life Survival Function, logarithmic -->
    <g transform="translate(93.933125 16.318125)scale(0.12 -0.12)">
     <defs>
      <path id="DejaVuSans-4c" d="M 628 4666 
L 1259 4666 
L 1259 531 
L 3531 531 
L 3531 0 
L 628 0 
L 628 4666 
z
" transform="scale(0.015625)"/>
      <path id="DejaVuSans-53" d="M 3425 4513 
L 3425 3897 
Q 3066 4069 2747 4153 
Q 2428 4238 2131 4238 
Q 1616 4238 1336 4038 
Q 1056 3838 1056 3469 
Q 1056 3159 1242 3001 
Q 1428 2844 1947 2747 
L 2328 2669 
Q 3034 2534 3370 2195 
Q 3706 1856 3706 1288 
Q 3706 609 3251 259 
Q 2797 -91 1919 -91 
Q 1588 -91 1214 -16 
Q 841 59 441 206 
L 441 856 
Q 825 641 1194 531 
Q 1563 422 1919 422 
Q 2459 422 2753 634 
Q 3047 847 3047 1241 
Q 3047 1584 2836 1778 
Q 2625 1972 2144 2069 
L 1759 2144 
Q 1053 2284 737 2584 
Q 422 2884 422 3419 
Q 422 4038 858 4394 
Q 1294 4750 2059 4750 
Q 2388 4750 2728 4690 
Q 3069 4631 3425 4513 
z
" transform="scale(0.015625)"/>
      <path id="DejaVuSans-75" d="M 544 1381 
L 544 3500 
L 1119 3500 
L 1119 1403 
Q 1119 906 1312 657 
Q 1506 409 1894 409 
Q 2359 409 2629 706 
Q 2900 1003 2900 1516 
L 2900 3500 
L 3475 3500 
L 3475 0 
L 2900 0 
L 2900 538 
Q 2691 219 2414 64 
Q 2138 -91 1772 -91 
Q 1169 -91 856 284 
Q 544 659 544 1381 
z
M 1991 3584 
L 1991 3584 
z
" transform="scale(0.015625)"/>
      <path id="DejaVuSans-46" d="M 628 4666 
L 3309 4666 
L 3309 4134 
L 1259 4134 
L 1259 2759 
L 3109 2759 
L 3109 2228 
L 1259 2228 
L 1259 0 
L 628 0 
L 628 4666 
z
" transform="scale(0.015625)"/>
      <path id="DejaVuSans-63" d="M 3122 3366 
L 3122 2828 
Q 2878 2963 2633 3030 
Q 2388 3097 2138 3097 
Q 1578 3097 1268 2742 
Q 959 2388 959 1747 
Q 959 1106 1268 751 
Q 1578 397 2138 397 
Q 2388 397 2633 464 
Q 2878 531 3122 666 
L 3122 134 
Q 2881 22 2623 -34 
Q 2366 -91 2075 -91 
Q 1284 -91 818 406 
Q 353 903 353 1747 
Q 353 2603 823 3093 
Q 1294 3584 2113 3584 
Q 2378 3584 2631 3529 
Q 2884 3475 3122 3366 
z
" transform="scale(0.015625)"/>
      <path id="DejaVuSans-2c" d="M 750 794 
L 1409 794 
L 1409 256 
L 897 -744 
L 494 -744 
L 750 256 
L 750 794 
z
" transform="scale(0.015625)"/>
      <path id="DejaVuSans-68" d="M 3513 2113 
L 3513 0 
L 2938 0 
L 2938 2094 
Q 2938 2591 2744 2837 
Q 2550 3084 2163 3084 
Q 1697 3084 1428 2787 
Q 1159 2491 1159 1978 
L 1159 0 
L 581 0 
L 581 4863 
L 1159 4863 
L 1159 2956 
Q 1366 3272 1645 3428 
Q 1925 3584 2291 3584 
Q 2894 3584 3203 3211 
Q 3513 2838 3513 2113 
z
" transform="scale(0.015625)"/>
      <path id="DejaVuSans-6d" d="M 3328 2828 
Q 3544 3216 3844 3400 
Q 4144 3584 4550 3584 
Q 5097 3584 5394 3201 
Q 5691 2819 5691 2113 
L 5691 0 
L 5113 0 
L 5113 2094 
Q 5113 2597 4934 2840 
Q 4756 3084 4391 3084 
Q 3944 3084 3684 2787 
Q 3425 2491 3425 1978 
L 3425 0 
L 2847 0 
L 2847 2094 
Q 2847 2600 2669 2842 
Q 2491 3084 2119 3084 
Q 1678 3084 1418 2786 
Q 1159 2488 1159 1978 
L 1159 0 
L 581 0 
L 581 3500 
L 1159 3500 
L 1159 2956 
Q 1356 3278 1631 3431 
Q 1906 3584 2284 3584 
Q 2666 3584 2933 3390 
Q 3200 3197 3328 2828 
z
" transform="scale(0.015625)"/>
     </defs>
     <use xlink:href="#DejaVuSans-4c"/>
     <use xlink:href="#DejaVuSans-69" x="55.712891"/>
     <use xlink:href="#DejaVuSans-66" x="83.496094"/>
     <use xlink:href="#DejaVuSans-65" x="118.701172"/>
     <use xlink:href="#DejaVuSans-20" x="180.224609"/>
     <use xlink:href="#DejaVuSans-53" x="212.011719"/>
     <use xlink:href="#DejaVuSans-75" x="275.488281"/>
     <use xlink:href="#DejaVuSans-72" x="338.867188"/>
     <use xlink:href="#DejaVuSans-76" x="379.980469"/>
     <use xlink:href="#DejaVuSans-69" x="439.160156"/>
     <use xlink:href="#DejaVuSans-76" x="466.943359"/>
     <use xlink:href="#DejaVuSans-61" x="526.123047"/>
     <use xlink:href="#DejaVuSans-6c" x="587.402344"/>
     <use xlink:href="#DejaVuSans-20" x="615.185547"/>
     <use xlink:href="#DejaVuSans-46" x="646.972656"/>
     <use xlink:href="#DejaVuSans-75" x="698.992188"/>
     <use xlink:href="#DejaVuSans-6e" x="762.371094"/>
     <use xlink:href="#DejaVuSans-63" x="825.75"/>
     <use xlink:href="#DejaVuSans-74" x="880.730469"/>
     <use xlink:href="#DejaVuSans-69" x="919.939453"/>
     <use xlink:href="#DejaVuSans-6f" x="947.722656"/>
     <use xlink:href="#DejaVuSans-6e" x="1008.904297"/>
     <use xlink:href="#DejaVuSans-2c" x="1072.283203"/>
     <use xlink:href="#DejaVuSans-20" x="1104.070312"/>
     <use xlink:href="#DejaVuSans-6c" x="1135.857422"/>
     <use xlink:href="#DejaVuSans-6f" x="1163.640625"/>
     <use xlink:href="#DejaVuSans-67" x="1224.822266"/>
     <use xlink:href="#DejaVuSans-61" x="1288.298828"/>
     <use xlink:href="#DejaVuSans-72" x="1349.578125"/>
     <use xlink:href="#DejaVuSans-69" x="1390.691406"/>
     <use xlink:href="#DejaVuSans-74" x="1418.474609"/>
     <use xlink:href="#DejaVuSans-68" x="1457.683594"/>
     <use xlink:href="#DejaVuSans-6d" x="1521.0625"/>
     <use xlink:href="#DejaVuSans-69" x="1618.474609"/>
     <use xlink:href="#DejaVuSans-63" x="1646.257812"/>
    </g>
   </g>
   <g id="legend_1">
    <g id="patch_7">
     <path d="M 63.50625 211.358125 
L 146.445312 211.358125 
Q 148.445312 211.358125 148.445312 209.358125 
L 148.445312 151.645625 
Q 148.445312 149.645625 146.445312 149.645625 
L 63.50625 149.645625 
Q 61.50625 149.645625 61.50625 151.645625 
L 61.50625 209.358125 
Q 61.50625 211.358125 63.50625 211.358125 
z
" style="fill: #ffffff; opacity: 0.8; stroke: #cccccc; stroke-linejoin: miter"/>
    </g>
    <g id="line2d_111">
     <path d="M 65.50625 157.744062 
L 75.50625 157.744062 
L 85.50625 157.744062 
" style="fill: none; stroke-dasharray: 5.55,2.4; stroke-dashoffset: 0; stroke: #000000; stroke-width: 1.5"/>
    </g>
    <g id="text_17">
     <!-- year 2100 -->
     <g transform="translate(93.50625 161.244062)scale(0.1 -0.1)">
      <use xlink:href="#DejaVuSans-79"/>
      <use xlink:href="#DejaVuSans-65" x="59.179688"/>
      <use xlink:href="#DejaVuSans-61" x="120.703125"/>
      <use xlink:href="#DejaVuSans-72" x="181.982422"/>
      <use xlink:href="#DejaVuSans-20" x="223.095703"/>
      <use xlink:href="#DejaVuSans-32" x="254.882812"/>
      <use xlink:href="#DejaVuSans-31" x="318.505859"/>
      <use xlink:href="#DejaVuSans-30" x="382.128906"/>
      <use xlink:href="#DejaVuSans-30" x="445.751953"/>
     </g>
    </g>
    <g id="line2d_112">
     <path d="M 65.50625 172.422187 
L 75.50625 172.422187 
L 85.50625 172.422187 
" style="fill: none; stroke: #000000; stroke-width: 1.5; stroke-linecap: square"/>
    </g>
    <g id="text_18">
     <!-- year 2050 -->
     <g transform="translate(93.50625 175.922187)scale(0.1 -0.1)">
      <defs>
       <path id="DejaVuSans-35" d="M 691 4666 
L 3169 4666 
L 3169 4134 
L 1269 4134 
L 1269 2991 
Q 1406 3038 1543 3061 
Q 1681 3084 1819 3084 
Q 2600 3084 3056 2656 
Q 3513 2228 3513 1497 
Q 3513 744 3044 326 
Q 2575 -91 1722 -91 
Q 1428 -91 1123 -41 
Q 819 9 494 109 
L 494 744 
Q 775 591 1075 516 
Q 1375 441 1709 441 
Q 2250 441 2565 725 
Q 2881 1009 2881 1497 
Q 2881 1984 2565 2268 
Q 2250 2553 1709 2553 
Q 1456 2553 1204 2497 
Q 953 2441 691 2322 
L 691 4666 
z
" transform="scale(0.015625)"/>
      </defs>
      <use xlink:href="#DejaVuSans-79"/>
      <use xlink:href="#DejaVuSans-65" x="59.179688"/>
      <use xlink:href="#DejaVuSans-61" x="120.703125"/>
      <use xlink:href="#DejaVuSans-72" x="181.982422"/>
      <use xlink:href="#DejaVuSans-20" x="223.095703"/>
      <use xlink:href="#DejaVuSans-32" x="254.882812"/>
      <use xlink:href="#DejaVuSans-30" x="318.505859"/>
      <use xlink:href="#DejaVuSans-35" x="382.128906"/>
      <use xlink:href="#DejaVuSans-30" x="445.751953"/>
     </g>
    </g>
    <g id="line2d_113">
     <path d="M 65.50625 187.100312 
L 75.50625 187.100312 
L 85.50625 187.100312 
" style="fill: none; stroke-dasharray: 1.5,2.475; stroke-dashoffset: 0; stroke: #000000; stroke-width: 1.5"/>
    </g>
    <g id="text_19">
     <!-- year 2000 -->
     <g transform="translate(93.50625 190.600312)scale(0.1 -0.1)">
      <use xlink:href="#DejaVuSans-79"/>
      <use xlink:href="#DejaVuSans-65" x="59.179688"/>
      <use xlink:href="#DejaVuSans-61" x="120.703125"/>
      <use xlink:href="#DejaVuSans-72" x="181.982422"/>
      <use xlink:href="#DejaVuSans-20" x="223.095703"/>
      <use xlink:href="#DejaVuSans-32" x="254.882812"/>
      <use xlink:href="#DejaVuSans-30" x="318.505859"/>
      <use xlink:href="#DejaVuSans-30" x="382.128906"/>
      <use xlink:href="#DejaVuSans-30" x="445.751953"/>
     </g>
    </g>
    <g id="line2d_114">
     <path d="M 65.50625 201.778437 
L 75.50625 201.778437 
L 85.50625 201.778437 
" style="fill: none; stroke-dasharray: 9.6,2.4,1.5,2.4; stroke-dashoffset: 0; stroke: #000000; stroke-width: 1.5"/>
    </g>
    <g id="text_20">
     <!-- year 1900 -->
     <g transform="translate(93.50625 205.278437)scale(0.1 -0.1)">
      <defs>
       <path id="DejaVuSans-39" d="M 703 97 
L 703 672 
Q 941 559 1184 500 
Q 1428 441 1663 441 
Q 2288 441 2617 861 
Q 2947 1281 2994 2138 
Q 2813 1869 2534 1725 
Q 2256 1581 1919 1581 
Q 1219 1581 811 2004 
Q 403 2428 403 3163 
Q 403 3881 828 4315 
Q 1253 4750 1959 4750 
Q 2769 4750 3195 4129 
Q 3622 3509 3622 2328 
Q 3622 1225 3098 567 
Q 2575 -91 1691 -91 
Q 1453 -91 1209 -44 
Q 966 3 703 97 
z
M 1959 2075 
Q 2384 2075 2632 2365 
Q 2881 2656 2881 3163 
Q 2881 3666 2632 3958 
Q 2384 4250 1959 4250 
Q 1534 4250 1286 3958 
Q 1038 3666 1038 3163 
Q 1038 2656 1286 2365 
Q 1534 2075 1959 2075 
z
" transform="scale(0.015625)"/>
      </defs>
      <use xlink:href="#DejaVuSans-79"/>
      <use xlink:href="#DejaVuSans-65" x="59.179688"/>
      <use xlink:href="#DejaVuSans-61" x="120.703125"/>
      <use xlink:href="#DejaVuSans-72" x="181.982422"/>
      <use xlink:href="#DejaVuSans-20" x="223.095703"/>
      <use xlink:href="#DejaVuSans-31" x="254.882812"/>
      <use xlink:href="#DejaVuSans-39" x="318.505859"/>
      <use xlink:href="#DejaVuSans-30" x="382.128906"/>
      <use xlink:href="#DejaVuSans-30" x="445.751953"/>
     </g>
    </g>
   </g>
  </g>
 </g>
 <defs>
  <clipPath id="pc4aa8ffbaa">
   <rect x="56.50625" y="22.318125" width="279" height="194.04"/>
  </clipPath>
 </defs>
</svg>
