<?xml version="1.0" encoding="utf-8" standalone="no"?>
<!DOCTYPE svg PUBLIC "-//W3C//DTD SVG 1.1//EN"
  "http://www.w3.org/Graphics/SVG/1.1/DTD/svg11.dtd">
<svg xmlns:xlink="http://www.w3.org/1999/xlink" width="342.709375pt" height="253.914375pt" viewBox="0 0 342.709375 253.914375" xmlns="http://www.w3.org/2000/svg" version="1.1">
 <metadata>
  <rdf:RDF xmlns:dc="http://purl.org/dc/elements/1.1/" xmlns:cc="http://creativecommons.org/ns#" xmlns:rdf="http://www.w3.org/1999/02/22-rdf-syntax-ns#">
   <cc:Work>
    <dc:type rdf:resource="http://purl.org/dc/dcmitype/StillImage"/>
    <dc:date>2023-02-14T17:22:35.883746</dc:date>
    <dc:format>image/svg+xml</dc:format>
    <dc:creator>
     <cc:Agent>
      <dc:title>Matplotlib v3.5.2, https://matplotlib.org/</dc:title>
     </cc:Agent>
    </dc:creator>
   </cc:Work>
  </rdf:RDF>
 </metadata>
 <defs>
  <style type="text/css">*{stroke-linejoin: round; stroke-linecap: butt}</style>
 </defs>
 <g id="figure_1">
  <g id="patch_1">
   <path d="M 0 253.914375 
L 342.709375 253.914375 
L 342.709375 0 
L 0 0 
z
" style="fill: #ffffff"/>
  </g>
  <g id="axes_1">
   <g id="patch_2">
    <path d="M 46.965625 216.358125 
L 325.965625 216.358125 
L 325.965625 22.318125 
L 46.965625 22.318125 
z
" style="fill: #ffffff"/>
   </g>
   <g id="matplotlib.axis_1">
    <g id="xtick_1">
     <g id="line2d_1">
      <path d="M 46.965625 216.358125 
L 46.965625 22.318125 
" clip-path="url(#p8d2aad1c1d)" style="fill: none; stroke: #b0b0b0; stroke-width: 0.8; stroke-linecap: square"/>
     </g>
     <g id="line2d_2">
      <defs>
       <path id="mf0afa73727" d="M 0 0 
L 0 3.5 
" style="stroke: #000000; stroke-width: 0.8"/>
      </defs>
      <g>
       <use xlink:href="#mf0afa73727" x="46.965625" y="216.358125" style="stroke: #000000; stroke-width: 0.8"/>
      </g>
     </g>
     <g id="text_1">
      <!-- 0 -->
      <g transform="translate(43.784375 230.956562)scale(0.1 -0.1)">
       <defs>
        <path id="DejaVuSans-30" d="M 2034 4250 
Q 1547 4250 1301 3770 
Q 1056 3291 1056 2328 
Q 1056 1369 1301 889 
Q 1547 409 2034 409 
Q 2525 409 2770 889 
Q 3016 1369 3016 2328 
Q 3016 3291 2770 3770 
Q 2525 4250 2034 4250 
z
M 2034 4750 
Q 2819 4750 3233 4129 
Q 3647 3509 3647 2328 
Q 3647 1150 3233 529 
Q 2819 -91 2034 -91 
Q 1250 -91 836 529 
Q 422 1150 422 2328 
Q 422 3509 836 4129 
Q 1250 4750 2034 4750 
z
" transform="scale(0.015625)"/>
       </defs>
       <use xlink:href="#DejaVuSans-30"/>
      </g>
     </g>
    </g>
    <g id="xtick_2">
     <g id="line2d_3">
      <path d="M 93.465625 216.358125 
L 93.465625 22.318125 
" clip-path="url(#p8d2aad1c1d)" style="fill: none; stroke: #b0b0b0; stroke-width: 0.8; stroke-linecap: square"/>
     </g>
     <g id="line2d_4">
      <g>
       <use xlink:href="#mf0afa73727" x="93.465625" y="216.358125" style="stroke: #000000; stroke-width: 0.8"/>
      </g>
     </g>
     <g id="text_2">
      <!-- 20 -->
      <g transform="translate(87.103125 230.956562)scale(0.1 -0.1)">
       <defs>
        <path id="DejaVuSans-32" d="M 1228 531 
L 3431 531 
L 3431 0 
L 469 0 
L 469 531 
Q 828 903 1448 1529 
Q 2069 2156 2228 2338 
Q 2531 2678 2651 2914 
Q 2772 3150 2772 3378 
Q 2772 3750 2511 3984 
Q 2250 4219 1831 4219 
Q 1534 4219 1204 4116 
Q 875 4013 500 3803 
L 500 4441 
Q 881 4594 1212 4672 
Q 1544 4750 1819 4750 
Q 2544 4750 2975 4387 
Q 3406 4025 3406 3419 
Q 3406 3131 3298 2873 
Q 3191 2616 2906 2266 
Q 2828 2175 2409 1742 
Q 1991 1309 1228 531 
z
" transform="scale(0.015625)"/>
       </defs>
       <use xlink:href="#DejaVuSans-32"/>
       <use xlink:href="#DejaVuSans-30" x="63.623047"/>
      </g>
     </g>
    </g>
    <g id="xtick_3">
     <g id="line2d_5">
      <path d="M 139.965625 216.358125 
L 139.965625 22.318125 
" clip-path="url(#p8d2aad1c1d)" style="fill: none; stroke: #b0b0b0; stroke-width: 0.8; stroke-linecap: square"/>
     </g>
     <g id="line2d_6">
      <g>
       <use xlink:href="#mf0afa73727" x="139.965625" y="216.358125" style="stroke: #000000; stroke-width: 0.8"/>
      </g>
     </g>
     <g id="text_3">
      <!-- 40 -->
      <g transform="translate(133.603125 230.956562)scale(0.1 -0.1)">
       <defs>
        <path id="DejaVuSans-34" d="M 2419 4116 
L 825 1625 
L 2419 1625 
L 2419 4116 
z
M 2253 4666 
L 3047 4666 
L 3047 1625 
L 3713 1625 
L 3713 1100 
L 3047 1100 
L 3047 0 
L 2419 0 
L 2419 1100 
L 313 1100 
L 313 1709 
L 2253 4666 
z
" transform="scale(0.015625)"/>
       </defs>
       <use xlink:href="#DejaVuSans-34"/>
       <use xlink:href="#DejaVuSans-30" x="63.623047"/>
      </g>
     </g>
    </g>
    <g id="xtick_4">
     <g id="line2d_7">
      <path d="M 186.465625 216.358125 
L 186.465625 22.318125 
" clip-path="url(#p8d2aad1c1d)" style="fill: none; stroke: #b0b0b0; stroke-width: 0.8; stroke-linecap: square"/>
     </g>
     <g id="line2d_8">
      <g>
       <use xlink:href="#mf0afa73727" x="186.465625" y="216.358125" style="stroke: #000000; stroke-width: 0.8"/>
      </g>
     </g>
     <g id="text_4">
      <!-- 60 -->
      <g transform="translate(180.103125 230.956562)scale(0.1 -0.1)">
       <defs>
        <path id="DejaVuSans-36" d="M 2113 2584 
Q 1688 2584 1439 2293 
Q 1191 2003 1191 1497 
Q 1191 994 1439 701 
Q 1688 409 2113 409 
Q 2538 409 2786 701 
Q 3034 994 3034 1497 
Q 3034 2003 2786 2293 
Q 2538 2584 2113 2584 
z
M 3366 4563 
L 3366 3988 
Q 3128 4100 2886 4159 
Q 2644 4219 2406 4219 
Q 1781 4219 1451 3797 
Q 1122 3375 1075 2522 
Q 1259 2794 1537 2939 
Q 1816 3084 2150 3084 
Q 2853 3084 3261 2657 
Q 3669 2231 3669 1497 
Q 3669 778 3244 343 
Q 2819 -91 2113 -91 
Q 1303 -91 875 529 
Q 447 1150 447 2328 
Q 447 3434 972 4092 
Q 1497 4750 2381 4750 
Q 2619 4750 2861 4703 
Q 3103 4656 3366 4563 
z
" transform="scale(0.015625)"/>
       </defs>
       <use xlink:href="#DejaVuSans-36"/>
       <use xlink:href="#DejaVuSans-30" x="63.623047"/>
      </g>
     </g>
    </g>
    <g id="xtick_5">
     <g id="line2d_9">
      <path d="M 232.965625 216.358125 
L 232.965625 22.318125 
" clip-path="url(#p8d2aad1c1d)" style="fill: none; stroke: #b0b0b0; stroke-width: 0.8; stroke-linecap: square"/>
     </g>
     <g id="line2d_10">
      <g>
       <use xlink:href="#mf0afa73727" x="232.965625" y="216.358125" style="stroke: #000000; stroke-width: 0.8"/>
      </g>
     </g>
     <g id="text_5">
      <!-- 80 -->
      <g transform="translate(226.603125 230.956562)scale(0.1 -0.1)">
       <defs>
        <path id="DejaVuSans-38" d="M 2034 2216 
Q 1584 2216 1326 1975 
Q 1069 1734 1069 1313 
Q 1069 891 1326 650 
Q 1584 409 2034 409 
Q 2484 409 2743 651 
Q 3003 894 3003 1313 
Q 3003 1734 2745 1975 
Q 2488 2216 2034 2216 
z
M 1403 2484 
Q 997 2584 770 2862 
Q 544 3141 544 3541 
Q 544 4100 942 4425 
Q 1341 4750 2034 4750 
Q 2731 4750 3128 4425 
Q 3525 4100 3525 3541 
Q 3525 3141 3298 2862 
Q 3072 2584 2669 2484 
Q 3125 2378 3379 2068 
Q 3634 1759 3634 1313 
Q 3634 634 3220 271 
Q 2806 -91 2034 -91 
Q 1263 -91 848 271 
Q 434 634 434 1313 
Q 434 1759 690 2068 
Q 947 2378 1403 2484 
z
M 1172 3481 
Q 1172 3119 1398 2916 
Q 1625 2713 2034 2713 
Q 2441 2713 2670 2916 
Q 2900 3119 2900 3481 
Q 2900 3844 2670 4047 
Q 2441 4250 2034 4250 
Q 1625 4250 1398 4047 
Q 1172 3844 1172 3481 
z
" transform="scale(0.015625)"/>
       </defs>
       <use xlink:href="#DejaVuSans-38"/>
       <use xlink:href="#DejaVuSans-30" x="63.623047"/>
      </g>
     </g>
    </g>
    <g id="xtick_6">
     <g id="line2d_11">
      <path d="M 279.465625 216.358125 
L 279.465625 22.318125 
" clip-path="url(#p8d2aad1c1d)" style="fill: none; stroke: #b0b0b0; stroke-width: 0.8; stroke-linecap: square"/>
     </g>
     <g id="line2d_12">
      <g>
       <use xlink:href="#mf0afa73727" x="279.465625" y="216.358125" style="stroke: #000000; stroke-width: 0.8"/>
      </g>
     </g>
     <g id="text_6">
      <!-- 100 -->
      <g transform="translate(269.921875 230.956562)scale(0.1 -0.1)">
       <defs>
        <path id="DejaVuSans-31" d="M 794 531 
L 1825 531 
L 1825 4091 
L 703 3866 
L 703 4441 
L 1819 4666 
L 2450 4666 
L 2450 531 
L 3481 531 
L 3481 0 
L 794 0 
L 794 531 
z
" transform="scale(0.015625)"/>
       </defs>
       <use xlink:href="#DejaVuSans-31"/>
       <use xlink:href="#DejaVuSans-30" x="63.623047"/>
       <use xlink:href="#DejaVuSans-30" x="127.246094"/>
      </g>
     </g>
    </g>
    <g id="xtick_7">
     <g id="line2d_13">
      <path d="M 325.965625 216.358125 
L 325.965625 22.318125 
" clip-path="url(#p8d2aad1c1d)" style="fill: none; stroke: #b0b0b0; stroke-width: 0.8; stroke-linecap: square"/>
     </g>
     <g id="line2d_14">
      <g>
       <use xlink:href="#mf0afa73727" x="325.965625" y="216.358125" style="stroke: #000000; stroke-width: 0.8"/>
      </g>
     </g>
     <g id="text_7">
      <!-- 120 -->
      <g transform="translate(316.421875 230.956562)scale(0.1 -0.1)">
       <use xlink:href="#DejaVuSans-31"/>
       <use xlink:href="#DejaVuSans-32" x="63.623047"/>
       <use xlink:href="#DejaVuSans-30" x="127.246094"/>
      </g>
     </g>
    </g>
    <g id="text_8">
     <!-- age -->
     <g transform="translate(177.150781 244.634687)scale(0.1 -0.1)">
      <defs>
       <path id="DejaVuSans-61" d="M 2194 1759 
Q 1497 1759 1228 1600 
Q 959 1441 959 1056 
Q 959 750 1161 570 
Q 1363 391 1709 391 
Q 2188 391 2477 730 
Q 2766 1069 2766 1631 
L 2766 1759 
L 2194 1759 
z
M 3341 1997 
L 3341 0 
L 2766 0 
L 2766 531 
Q 2569 213 2275 61 
Q 1981 -91 1556 -91 
Q 1019 -91 701 211 
Q 384 513 384 1019 
Q 384 1609 779 1909 
Q 1175 2209 1959 2209 
L 2766 2209 
L 2766 2266 
Q 2766 2663 2505 2880 
Q 2244 3097 1772 3097 
Q 1472 3097 1187 3025 
Q 903 2953 641 2809 
L 641 3341 
Q 956 3463 1253 3523 
Q 1550 3584 1831 3584 
Q 2591 3584 2966 3190 
Q 3341 2797 3341 1997 
z
" transform="scale(0.015625)"/>
       <path id="DejaVuSans-67" d="M 2906 1791 
Q 2906 2416 2648 2759 
Q 2391 3103 1925 3103 
Q 1463 3103 1205 2759 
Q 947 2416 947 1791 
Q 947 1169 1205 825 
Q 1463 481 1925 481 
Q 2391 481 2648 825 
Q 2906 1169 2906 1791 
z
M 3481 434 
Q 3481 -459 3084 -895 
Q 2688 -1331 1869 -1331 
Q 1566 -1331 1297 -1286 
Q 1028 -1241 775 -1147 
L 775 -588 
Q 1028 -725 1275 -790 
Q 1522 -856 1778 -856 
Q 2344 -856 2625 -561 
Q 2906 -266 2906 331 
L 2906 616 
Q 2728 306 2450 153 
Q 2172 0 1784 0 
Q 1141 0 747 490 
Q 353 981 353 1791 
Q 353 2603 747 3093 
Q 1141 3584 1784 3584 
Q 2172 3584 2450 3431 
Q 2728 3278 2906 2969 
L 2906 3500 
L 3481 3500 
L 3481 434 
z
" transform="scale(0.015625)"/>
       <path id="DejaVuSans-65" d="M 3597 1894 
L 3597 1613 
L 953 1613 
Q 991 1019 1311 708 
Q 1631 397 2203 397 
Q 2534 397 2845 478 
Q 3156 559 3463 722 
L 3463 178 
Q 3153 47 2828 -22 
Q 2503 -91 2169 -91 
Q 1331 -91 842 396 
Q 353 884 353 1716 
Q 353 2575 817 3079 
Q 1281 3584 2069 3584 
Q 2775 3584 3186 3129 
Q 3597 2675 3597 1894 
z
M 3022 2063 
Q 3016 2534 2758 2815 
Q 2500 3097 2075 3097 
Q 1594 3097 1305 2825 
Q 1016 2553 972 2059 
L 3022 2063 
z
" transform="scale(0.015625)"/>
      </defs>
      <use xlink:href="#DejaVuSans-61"/>
      <use xlink:href="#DejaVuSans-67" x="61.279297"/>
      <use xlink:href="#DejaVuSans-65" x="124.755859"/>
     </g>
    </g>
   </g>
   <g id="matplotlib.axis_2">
    <g id="ytick_1">
     <g id="line2d_15">
      <path d="M 46.965625 214.455772 
L 325.965625 214.455772 
" clip-path="url(#p8d2aad1c1d)" style="fill: none; stroke: #b0b0b0; stroke-width: 0.8; stroke-linecap: square"/>
     </g>
     <g id="line2d_16">
      <defs>
       <path id="m54c4f8a785" d="M 0 0 
L -3.5 0 
" style="stroke: #000000; stroke-width: 0.8"/>
      </defs>
      <g>
       <use xlink:href="#m54c4f8a785" x="46.965625" y="214.455772" style="stroke: #000000; stroke-width: 0.8"/>
      </g>
     </g>
     <g id="text_9">
      <!-- 0 -->
      <g transform="translate(33.603125 218.254991)scale(0.1 -0.1)">
       <use xlink:href="#DejaVuSans-30"/>
      </g>
     </g>
    </g>
    <g id="ytick_2">
     <g id="line2d_17">
      <path d="M 46.965625 176.408713 
L 325.965625 176.408713 
" clip-path="url(#p8d2aad1c1d)" style="fill: none; stroke: #b0b0b0; stroke-width: 0.8; stroke-linecap: square"/>
     </g>
     <g id="line2d_18">
      <g>
       <use xlink:href="#m54c4f8a785" x="46.965625" y="176.408713" style="stroke: #000000; stroke-width: 0.8"/>
      </g>
     </g>
     <g id="text_10">
      <!-- 20 -->
      <g transform="translate(27.240625 180.207932)scale(0.1 -0.1)">
       <use xlink:href="#DejaVuSans-32"/>
       <use xlink:href="#DejaVuSans-30" x="63.623047"/>
      </g>
     </g>
    </g>
    <g id="ytick_3">
     <g id="line2d_19">
      <path d="M 46.965625 138.361654 
L 325.965625 138.361654 
" clip-path="url(#p8d2aad1c1d)" style="fill: none; stroke: #b0b0b0; stroke-width: 0.8; stroke-linecap: square"/>
     </g>
     <g id="line2d_20">
      <g>
       <use xlink:href="#m54c4f8a785" x="46.965625" y="138.361654" style="stroke: #000000; stroke-width: 0.8"/>
      </g>
     </g>
     <g id="text_11">
      <!-- 40 -->
      <g transform="translate(27.240625 142.160873)scale(0.1 -0.1)">
       <use xlink:href="#DejaVuSans-34"/>
       <use xlink:href="#DejaVuSans-30" x="63.623047"/>
      </g>
     </g>
    </g>
    <g id="ytick_4">
     <g id="line2d_21">
      <path d="M 46.965625 100.314596 
L 325.965625 100.314596 
" clip-path="url(#p8d2aad1c1d)" style="fill: none; stroke: #b0b0b0; stroke-width: 0.8; stroke-linecap: square"/>
     </g>
     <g id="line2d_22">
      <g>
       <use xlink:href="#m54c4f8a785" x="46.965625" y="100.314596" style="stroke: #000000; stroke-width: 0.8"/>
      </g>
     </g>
     <g id="text_12">
      <!-- 60 -->
      <g transform="translate(27.240625 104.113814)scale(0.1 -0.1)">
       <use xlink:href="#DejaVuSans-36"/>
       <use xlink:href="#DejaVuSans-30" x="63.623047"/>
      </g>
     </g>
    </g>
    <g id="ytick_5">
     <g id="line2d_23">
      <path d="M 46.965625 62.267537 
L 325.965625 62.267537 
" clip-path="url(#p8d2aad1c1d)" style="fill: none; stroke: #b0b0b0; stroke-width: 0.8; stroke-linecap: square"/>
     </g>
     <g id="line2d_24">
      <g>
       <use xlink:href="#m54c4f8a785" x="46.965625" y="62.267537" style="stroke: #000000; stroke-width: 0.8"/>
      </g>
     </g>
     <g id="text_13">
      <!-- 80 -->
      <g transform="translate(27.240625 66.066756)scale(0.1 -0.1)">
       <use xlink:href="#DejaVuSans-38"/>
       <use xlink:href="#DejaVuSans-30" x="63.623047"/>
      </g>
     </g>
    </g>
    <g id="ytick_6">
     <g id="line2d_25">
      <path d="M 46.965625 24.220478 
L 325.965625 24.220478 
" clip-path="url(#p8d2aad1c1d)" style="fill: none; stroke: #b0b0b0; stroke-width: 0.8; stroke-linecap: square"/>
     </g>
     <g id="line2d_26">
      <g>
       <use xlink:href="#m54c4f8a785" x="46.965625" y="24.220478" style="stroke: #000000; stroke-width: 0.8"/>
      </g>
     </g>
     <g id="text_14">
      <!-- 100 -->
      <g transform="translate(20.878125 28.019697)scale(0.1 -0.1)">
       <use xlink:href="#DejaVuSans-31"/>
       <use xlink:href="#DejaVuSans-30" x="63.623047"/>
       <use xlink:href="#DejaVuSans-30" x="127.246094"/>
      </g>
     </g>
    </g>
    <g id="text_15">
     <!-- % probability of living to age -->
     <g transform="translate(14.798438 191.333437)rotate(-90)scale(0.1 -0.1)">
      <defs>
       <path id="DejaVuSans-25" d="M 4653 2053 
Q 4381 2053 4226 1822 
Q 4072 1591 4072 1178 
Q 4072 772 4226 539 
Q 4381 306 4653 306 
Q 4919 306 5073 539 
Q 5228 772 5228 1178 
Q 5228 1588 5073 1820 
Q 4919 2053 4653 2053 
z
M 4653 2450 
Q 5147 2450 5437 2106 
Q 5728 1763 5728 1178 
Q 5728 594 5436 251 
Q 5144 -91 4653 -91 
Q 4153 -91 3862 251 
Q 3572 594 3572 1178 
Q 3572 1766 3864 2108 
Q 4156 2450 4653 2450 
z
M 1428 4353 
Q 1159 4353 1004 4120 
Q 850 3888 850 3481 
Q 850 3069 1003 2837 
Q 1156 2606 1428 2606 
Q 1700 2606 1854 2837 
Q 2009 3069 2009 3481 
Q 2009 3884 1853 4118 
Q 1697 4353 1428 4353 
z
M 4250 4750 
L 4750 4750 
L 1831 -91 
L 1331 -91 
L 4250 4750 
z
M 1428 4750 
Q 1922 4750 2215 4408 
Q 2509 4066 2509 3481 
Q 2509 2891 2217 2550 
Q 1925 2209 1428 2209 
Q 931 2209 642 2551 
Q 353 2894 353 3481 
Q 353 4063 643 4406 
Q 934 4750 1428 4750 
z
" transform="scale(0.015625)"/>
       <path id="DejaVuSans-20" transform="scale(0.015625)"/>
       <path id="DejaVuSans-70" d="M 1159 525 
L 1159 -1331 
L 581 -1331 
L 581 3500 
L 1159 3500 
L 1159 2969 
Q 1341 3281 1617 3432 
Q 1894 3584 2278 3584 
Q 2916 3584 3314 3078 
Q 3713 2572 3713 1747 
Q 3713 922 3314 415 
Q 2916 -91 2278 -91 
Q 1894 -91 1617 61 
Q 1341 213 1159 525 
z
M 3116 1747 
Q 3116 2381 2855 2742 
Q 2594 3103 2138 3103 
Q 1681 3103 1420 2742 
Q 1159 2381 1159 1747 
Q 1159 1113 1420 752 
Q 1681 391 2138 391 
Q 2594 391 2855 752 
Q 3116 1113 3116 1747 
z
" transform="scale(0.015625)"/>
       <path id="DejaVuSans-72" d="M 2631 2963 
Q 2534 3019 2420 3045 
Q 2306 3072 2169 3072 
Q 1681 3072 1420 2755 
Q 1159 2438 1159 1844 
L 1159 0 
L 581 0 
L 581 3500 
L 1159 3500 
L 1159 2956 
Q 1341 3275 1631 3429 
Q 1922 3584 2338 3584 
Q 2397 3584 2469 3576 
Q 2541 3569 2628 3553 
L 2631 2963 
z
" transform="scale(0.015625)"/>
       <path id="DejaVuSans-6f" d="M 1959 3097 
Q 1497 3097 1228 2736 
Q 959 2375 959 1747 
Q 959 1119 1226 758 
Q 1494 397 1959 397 
Q 2419 397 2687 759 
Q 2956 1122 2956 1747 
Q 2956 2369 2687 2733 
Q 2419 3097 1959 3097 
z
M 1959 3584 
Q 2709 3584 3137 3096 
Q 3566 2609 3566 1747 
Q 3566 888 3137 398 
Q 2709 -91 1959 -91 
Q 1206 -91 779 398 
Q 353 888 353 1747 
Q 353 2609 779 3096 
Q 1206 3584 1959 3584 
z
" transform="scale(0.015625)"/>
       <path id="DejaVuSans-62" d="M 3116 1747 
Q 3116 2381 2855 2742 
Q 2594 3103 2138 3103 
Q 1681 3103 1420 2742 
Q 1159 2381 1159 1747 
Q 1159 1113 1420 752 
Q 1681 391 2138 391 
Q 2594 391 2855 752 
Q 3116 1113 3116 1747 
z
M 1159 2969 
Q 1341 3281 1617 3432 
Q 1894 3584 2278 3584 
Q 2916 3584 3314 3078 
Q 3713 2572 3713 1747 
Q 3713 922 3314 415 
Q 2916 -91 2278 -91 
Q 1894 -91 1617 61 
Q 1341 213 1159 525 
L 1159 0 
L 581 0 
L 581 4863 
L 1159 4863 
L 1159 2969 
z
" transform="scale(0.015625)"/>
       <path id="DejaVuSans-69" d="M 603 3500 
L 1178 3500 
L 1178 0 
L 603 0 
L 603 3500 
z
M 603 4863 
L 1178 4863 
L 1178 4134 
L 603 4134 
L 603 4863 
z
" transform="scale(0.015625)"/>
       <path id="DejaVuSans-6c" d="M 603 4863 
L 1178 4863 
L 1178 0 
L 603 0 
L 603 4863 
z
" transform="scale(0.015625)"/>
       <path id="DejaVuSans-74" d="M 1172 4494 
L 1172 3500 
L 2356 3500 
L 2356 3053 
L 1172 3053 
L 1172 1153 
Q 1172 725 1289 603 
Q 1406 481 1766 481 
L 2356 481 
L 2356 0 
L 1766 0 
Q 1100 0 847 248 
Q 594 497 594 1153 
L 594 3053 
L 172 3053 
L 172 3500 
L 594 3500 
L 594 4494 
L 1172 4494 
z
" transform="scale(0.015625)"/>
       <path id="DejaVuSans-79" d="M 2059 -325 
Q 1816 -950 1584 -1140 
Q 1353 -1331 966 -1331 
L 506 -1331 
L 506 -850 
L 844 -850 
Q 1081 -850 1212 -737 
Q 1344 -625 1503 -206 
L 1606 56 
L 191 3500 
L 800 3500 
L 1894 763 
L 2988 3500 
L 3597 3500 
L 2059 -325 
z
" transform="scale(0.015625)"/>
       <path id="DejaVuSans-66" d="M 2375 4863 
L 2375 4384 
L 1825 4384 
Q 1516 4384 1395 4259 
Q 1275 4134 1275 3809 
L 1275 3500 
L 2222 3500 
L 2222 3053 
L 1275 3053 
L 1275 0 
L 697 0 
L 697 3053 
L 147 3053 
L 147 3500 
L 697 3500 
L 697 3744 
Q 697 4328 969 4595 
Q 1241 4863 1831 4863 
L 2375 4863 
z
" transform="scale(0.015625)"/>
       <path id="DejaVuSans-76" d="M 191 3500 
L 800 3500 
L 1894 563 
L 2988 3500 
L 3597 3500 
L 2284 0 
L 1503 0 
L 191 3500 
z
" transform="scale(0.015625)"/>
       <path id="DejaVuSans-6e" d="M 3513 2113 
L 3513 0 
L 2938 0 
L 2938 2094 
Q 2938 2591 2744 2837 
Q 2550 3084 2163 3084 
Q 1697 3084 1428 2787 
Q 1159 2491 1159 1978 
L 1159 0 
L 581 0 
L 581 3500 
L 1159 3500 
L 1159 2956 
Q 1366 3272 1645 3428 
Q 1925 3584 2291 3584 
Q 2894 3584 3203 3211 
Q 3513 2838 3513 2113 
z
" transform="scale(0.015625)"/>
      </defs>
      <use xlink:href="#DejaVuSans-25"/>
      <use xlink:href="#DejaVuSans-20" x="95.019531"/>
      <use xlink:href="#DejaVuSans-70" x="126.806641"/>
      <use xlink:href="#DejaVuSans-72" x="190.283203"/>
      <use xlink:href="#DejaVuSans-6f" x="229.146484"/>
      <use xlink:href="#DejaVuSans-62" x="290.328125"/>
      <use xlink:href="#DejaVuSans-61" x="353.804688"/>
      <use xlink:href="#DejaVuSans-62" x="415.083984"/>
      <use xlink:href="#DejaVuSans-69" x="478.560547"/>
      <use xlink:href="#DejaVuSans-6c" x="506.34375"/>
      <use xlink:href="#DejaVuSans-69" x="534.126953"/>
      <use xlink:href="#DejaVuSans-74" x="561.910156"/>
      <use xlink:href="#DejaVuSans-79" x="601.119141"/>
      <use xlink:href="#DejaVuSans-20" x="660.298828"/>
      <use xlink:href="#DejaVuSans-6f" x="692.085938"/>
      <use xlink:href="#DejaVuSans-66" x="753.267578"/>
      <use xlink:href="#DejaVuSans-20" x="788.472656"/>
      <use xlink:href="#DejaVuSans-6c" x="820.259766"/>
      <use xlink:href="#DejaVuSans-69" x="848.042969"/>
      <use xlink:href="#DejaVuSans-76" x="875.826172"/>
      <use xlink:href="#DejaVuSans-69" x="935.005859"/>
      <use xlink:href="#DejaVuSans-6e" x="962.789062"/>
      <use xlink:href="#DejaVuSans-67" x="1026.167969"/>
      <use xlink:href="#DejaVuSans-20" x="1089.644531"/>
      <use xlink:href="#DejaVuSans-74" x="1121.431641"/>
      <use xlink:href="#DejaVuSans-6f" x="1160.640625"/>
      <use xlink:href="#DejaVuSans-20" x="1221.822266"/>
      <use xlink:href="#DejaVuSans-61" x="1253.609375"/>
      <use xlink:href="#DejaVuSans-67" x="1314.888672"/>
      <use xlink:href="#DejaVuSans-65" x="1378.365234"/>
     </g>
    </g>
   </g>
   <g id="line2d_27">
    <path d="M 46.965625 24.220478 
L 49.290625 24.439249 
L 51.615625 24.460174 
L 53.940625 24.475393 
L 56.265625 24.486807 
L 58.590625 24.494417 
L 60.915625 24.503929 
L 63.240625 24.511538 
L 65.565625 24.519147 
L 67.890625 24.526757 
L 70.215625 24.530561 
L 72.540625 24.534366 
L 74.865625 24.536269 
L 77.190625 24.543878 
L 79.515625 24.557194 
L 81.840625 24.581925 
L 84.165625 24.619972 
L 86.490625 24.667531 
L 88.815625 24.724601 
L 91.140625 24.789281 
L 93.465625 24.857766 
L 95.790625 24.930056 
L 98.115625 25.004247 
L 100.440625 25.082244 
L 102.765625 25.16024 
L 105.090625 25.236334 
L 107.415625 25.308624 
L 109.740625 25.380913 
L 112.065625 25.4513 
L 114.390625 25.525492 
L 116.715625 25.601586 
L 119.040625 25.681485 
L 121.365625 25.767091 
L 123.690625 25.858404 
L 126.015625 25.957326 
L 128.340625 26.063858 
L 130.665625 26.179901 
L 132.990625 26.307359 
L 135.315625 26.446231 
L 137.640625 26.596517 
L 139.965625 26.760119 
L 142.290625 26.937038 
L 144.615625 27.129176 
L 146.940625 27.33463 
L 149.265625 27.555303 
L 151.590625 27.791194 
L 153.915625 28.042305 
L 156.240625 28.312439 
L 158.565625 28.599694 
L 160.890625 28.902169 
L 163.215625 29.219861 
L 165.540625 29.556578 
L 167.865625 29.916123 
L 170.190625 30.3023 
L 172.515625 30.72272 
L 174.840625 31.184992 
L 177.165625 31.696725 
L 179.490625 32.259821 
L 181.815625 32.878086 
L 184.140625 33.553421 
L 186.465625 34.28773 
L 188.790625 35.084816 
L 191.115625 35.959898 
L 193.440625 36.928196 
L 195.765625 38.012537 
L 198.090625 39.233847 
L 200.415625 40.599737 
L 202.740625 42.121619 
L 205.065625 43.793787 
L 207.390625 45.614339 
L 209.715625 47.581372 
L 212.040625 49.712007 
L 214.365625 52.017659 
L 216.690625 54.498327 
L 219.015625 57.148305 
L 221.340625 59.971397 
L 223.665625 63.007552 
L 225.990625 66.285306 
L 228.315625 69.795147 
L 230.640625 73.514247 
L 232.965625 77.448313 
L 235.290625 81.612564 
L 237.615625 86.075484 
L 239.940625 90.943605 
L 242.265625 96.334873 
L 244.590625 102.306359 
L 246.915625 108.837137 
L 249.240625 115.845405 
L 251.565625 123.218925 
L 253.890625 130.830239 
L 256.215625 138.561401 
L 258.540625 146.300173 
L 260.865625 153.943827 
L 263.190625 161.399149 
L 265.515625 168.572921 
L 267.840625 175.377638 
L 270.165625 181.68584 
L 272.490625 187.398606 
L 274.815625 192.451256 
L 277.140625 196.817156 
L 279.465625 200.50772 
L 281.790625 203.583825 
L 284.115625 206.112052 
L 286.440625 208.158984 
L 288.765625 209.7893 
L 291.090625 211.063877 
L 293.415625 212.041686 
L 295.740625 212.777897 
L 298.065625 213.316263 
L 300.390625 213.704343 
L 302.715625 213.974477 
L 305.040625 214.157103 
L 307.365625 214.276951 
L 309.690625 214.353045 
L 312.015625 214.398701 
L 314.340625 214.425334 
L 316.665625 214.440553 
L 318.990625 214.448163 
L 321.315625 214.451967 
L 323.640625 214.45387 
" clip-path="url(#p8d2aad1c1d)" style="fill: none; stroke-dasharray: 5.55,2.4; stroke-dashoffset: 0; stroke: #000000; stroke-width: 1.5"/>
   </g>
   <g id="line2d_28">
    <path d="M 46.965625 24.220478 
L 49.290625 24.728406 
L 51.615625 24.768356 
L 53.940625 24.794989 
L 56.265625 24.817817 
L 58.590625 24.833036 
L 60.915625 24.848254 
L 63.240625 24.863473 
L 65.565625 24.87679 
L 67.890625 24.890106 
L 70.215625 24.899618 
L 72.540625 24.90913 
L 74.865625 24.916739 
L 77.190625 24.930056 
L 79.515625 24.954786 
L 81.840625 24.994736 
L 84.165625 25.049904 
L 86.490625 25.122193 
L 88.815625 25.205897 
L 91.140625 25.301014 
L 93.465625 25.399937 
L 95.790625 25.506469 
L 98.115625 25.618707 
L 100.440625 25.732849 
L 102.765625 25.84699 
L 105.090625 25.959229 
L 107.415625 26.067663 
L 109.740625 26.172292 
L 112.065625 26.276921 
L 114.390625 26.383453 
L 116.715625 26.495692 
L 119.040625 26.61554 
L 121.365625 26.739193 
L 123.690625 26.87426 
L 126.015625 27.018839 
L 128.340625 27.174832 
L 130.665625 27.347946 
L 132.990625 27.534377 
L 135.315625 27.737929 
L 137.640625 27.958601 
L 139.965625 28.198298 
L 142.290625 28.457018 
L 144.615625 28.738566 
L 146.940625 29.039138 
L 149.265625 29.362538 
L 151.590625 29.706864 
L 153.915625 30.074018 
L 156.240625 30.467805 
L 158.565625 30.88442 
L 160.890625 31.323864 
L 163.215625 31.784233 
L 165.540625 32.269333 
L 167.865625 32.784871 
L 170.190625 33.338456 
L 172.515625 33.939599 
L 174.840625 34.594009 
L 177.165625 35.313098 
L 179.490625 36.102574 
L 181.815625 36.968145 
L 184.140625 37.911712 
L 186.465625 38.938983 
L 188.790625 40.059469 
L 191.115625 41.282681 
L 193.440625 42.629547 
L 195.765625 44.115285 
L 198.090625 45.755113 
L 200.415625 47.568056 
L 202.740625 49.557917 
L 205.065625 51.726599 
L 207.390625 54.074103 
L 209.715625 56.600427 
L 212.040625 59.326499 
L 214.365625 62.267537 
L 216.690625 65.415931 
L 219.015625 68.764072 
L 221.340625 72.310058 
L 223.665625 76.093838 
L 225.990625 80.14585 
L 228.315625 84.458484 
L 230.640625 89.014619 
L 232.965625 93.821865 
L 235.290625 98.893538 
L 237.615625 104.273392 
L 239.940625 110.026107 
L 242.265625 116.210657 
L 244.590625 122.836552 
L 246.915625 129.848625 
L 249.240625 137.15366 
L 251.565625 144.628005 
L 253.890625 152.142299 
L 256.215625 159.567183 
L 258.540625 166.78471 
L 260.865625 173.684544 
L 263.190625 180.16586 
L 265.515625 186.141151 
L 267.840625 191.543833 
L 270.165625 196.294009 
L 272.490625 200.355532 
L 274.815625 203.730306 
L 277.140625 206.45828 
L 279.465625 208.602232 
L 281.790625 210.257279 
L 284.115625 211.51093 
L 286.440625 212.437376 
L 288.765625 213.108906 
L 291.090625 213.58069 
L 293.415625 213.905992 
L 295.740625 214.120958 
L 298.065625 214.25983 
L 300.390625 214.345436 
L 302.715625 214.396799 
L 305.040625 214.425334 
L 307.365625 214.440553 
L 309.690625 214.450065 
L 312.015625 214.45387 
L 314.340625 214.45387 
L 316.665625 214.455772 
L 318.990625 214.455772 
L 321.315625 214.455772 
L 323.640625 214.455772 
" clip-path="url(#p8d2aad1c1d)" style="fill: none; stroke: #000000; stroke-width: 1.5; stroke-linecap: square"/>
   </g>
   <g id="line2d_29">
    <path d="M 46.965625 24.220478 
L 49.290625 25.538809 
L 51.615625 25.632024 
L 53.940625 25.696704 
L 56.265625 25.74236 
L 58.590625 25.780407 
L 60.915625 25.81465 
L 63.240625 25.84699 
L 65.565625 25.877427 
L 67.890625 25.905963 
L 70.215625 25.930693 
L 72.540625 25.953521 
L 74.865625 25.97635 
L 77.190625 26.00869 
L 79.515625 26.054346 
L 81.840625 26.120929 
L 84.165625 26.212241 
L 86.490625 26.322578 
L 88.815625 26.45384 
L 91.140625 26.596517 
L 93.465625 26.750607 
L 95.790625 26.91421 
L 98.115625 27.087324 
L 100.440625 27.264243 
L 102.765625 27.443064 
L 105.090625 27.61808 
L 107.415625 27.791194 
L 109.740625 27.960504 
L 112.065625 28.127911 
L 114.390625 28.299123 
L 116.715625 28.476041 
L 119.040625 28.662472 
L 121.365625 28.85461 
L 123.690625 29.058161 
L 126.015625 29.27503 
L 128.340625 29.507117 
L 130.665625 29.76013 
L 132.990625 30.030264 
L 135.315625 30.325129 
L 137.640625 30.642821 
L 139.965625 30.987147 
L 142.290625 31.358106 
L 144.615625 31.761405 
L 146.940625 32.197044 
L 149.265625 32.668827 
L 151.590625 33.176756 
L 153.915625 33.726536 
L 156.240625 34.321972 
L 158.565625 34.95926 
L 160.890625 35.640303 
L 163.215625 36.361294 
L 165.540625 37.127943 
L 167.865625 37.947857 
L 170.190625 38.832451 
L 172.515625 39.791237 
L 174.840625 40.835629 
L 177.165625 41.97704 
L 179.490625 43.221179 
L 181.815625 44.573752 
L 184.140625 46.040466 
L 186.465625 47.627029 
L 188.790625 49.344853 
L 191.115625 51.207257 
L 193.440625 53.221849 
L 195.765625 55.396238 
L 198.090625 57.741839 
L 200.415625 60.271969 
L 202.740625 62.999943 
L 205.065625 65.929566 
L 207.390625 69.068449 
L 209.715625 72.422297 
L 212.040625 76.010134 
L 214.365625 79.843376 
L 216.690625 83.912509 
L 219.015625 88.202314 
L 221.340625 92.707086 
L 223.665625 97.443945 
L 225.990625 102.42811 
L 228.315625 107.655776 
L 230.640625 113.119333 
L 232.965625 118.807369 
L 235.290625 124.712272 
L 237.615625 130.820727 
L 239.940625 137.102297 
L 242.265625 143.517031 
L 244.590625 150.013566 
L 246.915625 156.527223 
L 249.240625 162.985711 
L 251.565625 169.309132 
L 253.890625 175.413783 
L 256.215625 181.214057 
L 258.540625 186.631958 
L 260.865625 191.597099 
L 263.190625 196.05241 
L 265.515625 199.961745 
L 267.840625 203.309886 
L 270.165625 206.093029 
L 272.490625 208.337805 
L 274.815625 210.091774 
L 277.140625 211.419617 
L 279.465625 212.395524 
L 281.790625 213.093687 
L 284.115625 213.582592 
L 286.440625 213.911699 
L 288.765625 214.13047 
L 291.090625 214.267439 
L 293.415625 214.351143 
L 295.740625 214.400604 
L 298.065625 214.429139 
L 300.390625 214.442456 
L 302.715625 214.450065 
L 305.040625 214.45387 
L 307.365625 214.455772 
L 309.690625 214.455772 
L 312.015625 214.455772 
L 314.340625 214.455772 
L 316.665625 214.455772 
L 318.990625 214.455772 
L 321.315625 214.455772 
L 323.640625 214.455772 
" clip-path="url(#p8d2aad1c1d)" style="fill: none; stroke-dasharray: 1.5,2.475; stroke-dashoffset: 0; stroke: #000000; stroke-width: 1.5"/>
   </g>
   <g id="line2d_30">
    <path d="M 46.965625 24.220478 
L 49.290625 49.550307 
L 51.615625 55.677786 
L 53.940625 58.647359 
L 56.265625 60.70951 
L 58.590625 62.332217 
L 60.915625 63.51548 
L 63.240625 64.360125 
L 65.565625 64.965073 
L 67.890625 65.421638 
L 70.215625 65.809718 
L 72.540625 66.190189 
L 74.865625 66.599194 
L 77.190625 67.04815 
L 79.515625 67.52564 
L 81.840625 68.025959 
L 84.165625 68.566227 
L 86.490625 69.169273 
L 88.815625 69.840804 
L 91.140625 70.584624 
L 93.465625 71.404538 
L 95.790625 72.302449 
L 98.115625 73.278356 
L 100.440625 74.307529 
L 102.765625 75.357627 
L 105.090625 76.405824 
L 107.415625 77.446411 
L 109.740625 78.483193 
L 112.065625 79.521878 
L 114.390625 80.577684 
L 116.715625 81.65822 
L 119.040625 82.76539 
L 121.365625 83.893485 
L 123.690625 85.038701 
L 126.015625 86.199137 
L 128.340625 87.369084 
L 130.665625 88.550445 
L 132.990625 89.745123 
L 135.315625 90.953117 
L 137.640625 92.170623 
L 139.965625 93.399543 
L 142.290625 94.641779 
L 144.615625 95.899234 
L 146.940625 97.179518 
L 149.265625 98.484532 
L 151.590625 99.821886 
L 153.915625 101.195385 
L 156.240625 102.608833 
L 158.565625 104.06984 
L 160.890625 105.580309 
L 163.215625 107.145945 
L 165.540625 108.774359 
L 167.865625 110.467453 
L 170.190625 112.232837 
L 172.515625 114.072412 
L 174.840625 115.995691 
L 177.165625 118.004576 
L 179.490625 120.106676 
L 181.815625 122.294381 
L 184.140625 124.561986 
L 186.465625 126.907587 
L 188.790625 129.338794 
L 191.115625 131.861314 
L 193.440625 134.480854 
L 195.765625 137.195512 
L 198.090625 140.012897 
L 200.415625 142.931106 
L 202.740625 145.952043 
L 205.065625 149.081413 
L 207.390625 152.324925 
L 209.715625 155.680676 
L 212.040625 159.14486 
L 214.365625 162.698456 
L 216.690625 166.295805 
L 219.015625 169.887447 
L 221.340625 173.444847 
L 223.665625 176.93947 
L 225.990625 180.371314 
L 228.315625 183.751796 
L 230.640625 187.09423 
L 232.965625 190.371984 
L 235.290625 193.548913 
L 237.615625 196.56224 
L 239.940625 199.35109 
L 242.265625 201.864098 
L 244.590625 204.086046 
L 246.915625 206.024544 
L 249.240625 207.698614 
L 251.565625 209.131086 
L 253.890625 210.33908 
L 256.215625 211.34162 
L 258.540625 212.155827 
L 260.865625 212.800725 
L 263.190625 213.295337 
L 265.515625 213.664393 
L 267.840625 213.930723 
L 270.165625 214.115251 
L 272.490625 214.240806 
L 274.815625 214.32451 
L 277.140625 214.377776 
L 279.465625 214.412018 
L 281.790625 214.431041 
L 284.115625 214.442456 
L 286.440625 214.450065 
L 288.765625 214.451967 
L 291.090625 214.45387 
L 293.415625 214.455772 
L 295.740625 214.455772 
L 298.065625 214.455772 
L 300.390625 214.455772 
L 302.715625 214.455772 
L 305.040625 214.455772 
L 307.365625 214.455772 
L 309.690625 214.455772 
L 312.015625 214.455772 
L 314.340625 214.455772 
L 316.665625 214.455772 
L 318.990625 214.455772 
L 321.315625 214.455772 
L 323.640625 214.455772 
" clip-path="url(#p8d2aad1c1d)" style="fill: none; stroke-dasharray: 9.6,2.4,1.5,2.4; stroke-dashoffset: 0; stroke: #000000; stroke-width: 1.5"/>
   </g>
   <g id="patch_3">
    <path d="M 46.965625 216.358125 
L 46.965625 22.318125 
" style="fill: none; stroke: #000000; stroke-width: 0.8; stroke-linejoin: miter; stroke-linecap: square"/>
   </g>
   <g id="patch_4">
    <path d="M 325.965625 216.358125 
L 325.965625 22.318125 
" style="fill: none; stroke: #000000; stroke-width: 0.8; stroke-linejoin: miter; stroke-linecap: square"/>
   </g>
   <g id="patch_5">
    <path d="M 46.965625 216.358125 
L 325.965625 216.358125 
" style="fill: none; stroke: #000000; stroke-width: 0.8; stroke-linejoin: miter; stroke-linecap: square"/>
   </g>
   <g id="patch_6">
    <path d="M 46.965625 22.318125 
L 325.965625 22.318125 
" style="fill: none; stroke: #000000; stroke-width: 0.8; stroke-linejoin: miter; stroke-linecap: square"/>
   </g>
   <g id="text_16">
    <!-- Life Survival Function, linear -->
    <g transform="translate(101.343438 16.318125)scale(0.12 -0.12)">
     <defs>
      <path id="DejaVuSans-4c" d="M 628 4666 
L 1259 4666 
L 1259 531 
L 3531 531 
L 3531 0 
L 628 0 
L 628 4666 
z
" transform="scale(0.015625)"/>
      <path id="DejaVuSans-53" d="M 3425 4513 
L 3425 3897 
Q 3066 4069 2747 4153 
Q 2428 4238 2131 4238 
Q 1616 4238 1336 4038 
Q 1056 3838 1056 3469 
Q 1056 3159 1242 3001 
Q 1428 2844 1947 2747 
L 2328 2669 
Q 3034 2534 3370 2195 
Q 3706 1856 3706 1288 
Q 3706 609 3251 259 
Q 2797 -91 1919 -91 
Q 1588 -91 1214 -16 
Q 841 59 441 206 
L 441 856 
Q 825 641 1194 531 
Q 1563 422 1919 422 
Q 2459 422 2753 634 
Q 3047 847 3047 1241 
Q 3047 1584 2836 1778 
Q 2625 1972 2144 2069 
L 1759 2144 
Q 1053 2284 737 2584 
Q 422 2884 422 3419 
Q 422 4038 858 4394 
Q 1294 4750 2059 4750 
Q 2388 4750 2728 4690 
Q 3069 4631 3425 4513 
z
" transform="scale(0.015625)"/>
      <path id="DejaVuSans-75" d="M 544 1381 
L 544 3500 
L 1119 3500 
L 1119 1403 
Q 1119 906 1312 657 
Q 1506 409 1894 409 
Q 2359 409 2629 706 
Q 2900 1003 2900 1516 
L 2900 3500 
L 3475 3500 
L 3475 0 
L 2900 0 
L 2900 538 
Q 2691 219 2414 64 
Q 2138 -91 1772 -91 
Q 1169 -91 856 284 
Q 544 659 544 1381 
z
M 1991 3584 
L 1991 3584 
z
" transform="scale(0.015625)"/>
      <path id="DejaVuSans-46" d="M 628 4666 
L 3309 4666 
L 3309 4134 
L 1259 4134 
L 1259 2759 
L 3109 2759 
L 3109 2228 
L 1259 2228 
L 1259 0 
L 628 0 
L 628 4666 
z
" transform="scale(0.015625)"/>
      <path id="DejaVuSans-63" d="M 3122 3366 
L 3122 2828 
Q 2878 2963 2633 3030 
Q 2388 3097 2138 3097 
Q 1578 3097 1268 2742 
Q 959 2388 959 1747 
Q 959 1106 1268 751 
Q 1578 397 2138 397 
Q 2388 397 2633 464 
Q 2878 531 3122 666 
L 3122 134 
Q 2881 22 2623 -34 
Q 2366 -91 2075 -91 
Q 1284 -91 818 406 
Q 353 903 353 1747 
Q 353 2603 823 3093 
Q 1294 3584 2113 3584 
Q 2378 3584 2631 3529 
Q 2884 3475 3122 3366 
z
" transform="scale(0.015625)"/>
      <path id="DejaVuSans-2c" d="M 750 794 
L 1409 794 
L 1409 256 
L 897 -744 
L 494 -744 
L 750 256 
L 750 794 
z
" transform="scale(0.015625)"/>
     </defs>
     <use xlink:href="#DejaVuSans-4c"/>
     <use xlink:href="#DejaVuSans-69" x="55.712891"/>
     <use xlink:href="#DejaVuSans-66" x="83.496094"/>
     <use xlink:href="#DejaVuSans-65" x="118.701172"/>
     <use xlink:href="#DejaVuSans-20" x="180.224609"/>
     <use xlink:href="#DejaVuSans-53" x="212.011719"/>
     <use xlink:href="#DejaVuSans-75" x="275.488281"/>
     <use xlink:href="#DejaVuSans-72" x="338.867188"/>
     <use xlink:href="#DejaVuSans-76" x="379.980469"/>
     <use xlink:href="#DejaVuSans-69" x="439.160156"/>
     <use xlink:href="#DejaVuSans-76" x="466.943359"/>
     <use xlink:href="#DejaVuSans-61" x="526.123047"/>
     <use xlink:href="#DejaVuSans-6c" x="587.402344"/>
     <use xlink:href="#DejaVuSans-20" x="615.185547"/>
     <use xlink:href="#DejaVuSans-46" x="646.972656"/>
     <use xlink:href="#DejaVuSans-75" x="698.992188"/>
     <use xlink:href="#DejaVuSans-6e" x="762.371094"/>
     <use xlink:href="#DejaVuSans-63" x="825.75"/>
     <use xlink:href="#DejaVuSans-74" x="880.730469"/>
     <use xlink:href="#DejaVuSans-69" x="919.939453"/>
     <use xlink:href="#DejaVuSans-6f" x="947.722656"/>
     <use xlink:href="#DejaVuSans-6e" x="1008.904297"/>
     <use xlink:href="#DejaVuSans-2c" x="1072.283203"/>
     <use xlink:href="#DejaVuSans-20" x="1104.070312"/>
     <use xlink:href="#DejaVuSans-6c" x="1135.857422"/>
     <use xlink:href="#DejaVuSans-69" x="1163.640625"/>
     <use xlink:href="#DejaVuSans-6e" x="1191.423828"/>
     <use xlink:href="#DejaVuSans-65" x="1254.802734"/>
     <use xlink:href="#DejaVuSans-61" x="1316.326172"/>
     <use xlink:href="#DejaVuSans-72" x="1377.605469"/>
    </g>
   </g>
   <g id="legend_1">
    <g id="patch_7">
     <path d="M 53.965625 211.358125 
L 136.904688 211.358125 
Q 138.904688 211.358125 138.904688 209.358125 
L 138.904688 151.645625 
Q 138.904688 149.645625 136.904688 149.645625 
L 53.965625 149.645625 
Q 51.965625 149.645625 51.965625 151.645625 
L 51.965625 209.358125 
Q 51.965625 211.358125 53.965625 211.358125 
z
" style="fill: #ffffff; opacity: 0.8; stroke: #cccccc; stroke-linejoin: miter"/>
    </g>
    <g id="line2d_31">
     <path d="M 55.965625 157.744062 
L 65.965625 157.744062 
L 75.965625 157.744062 
" style="fill: none; stroke-dasharray: 5.55,2.4; stroke-dashoffset: 0; stroke: #000000; stroke-width: 1.5"/>
    </g>
    <g id="text_17">
     <!-- year 2100 -->
     <g transform="translate(83.965625 161.244062)scale(0.1 -0.1)">
      <use xlink:href="#DejaVuSans-79"/>
      <use xlink:href="#DejaVuSans-65" x="59.179688"/>
      <use xlink:href="#DejaVuSans-61" x="120.703125"/>
      <use xlink:href="#DejaVuSans-72" x="181.982422"/>
      <use xlink:href="#DejaVuSans-20" x="223.095703"/>
      <use xlink:href="#DejaVuSans-32" x="254.882812"/>
      <use xlink:href="#DejaVuSans-31" x="318.505859"/>
      <use xlink:href="#DejaVuSans-30" x="382.128906"/>
      <use xlink:href="#DejaVuSans-30" x="445.751953"/>
     </g>
    </g>
    <g id="line2d_32">
     <path d="M 55.965625 172.422187 
L 65.965625 172.422187 
L 75.965625 172.422187 
" style="fill: none; stroke: #000000; stroke-width: 1.5; stroke-linecap: square"/>
    </g>
    <g id="text_18">
     <!-- year 2050 -->
     <g transform="translate(83.965625 175.922187)scale(0.1 -0.1)">
      <defs>
       <path id="DejaVuSans-35" d="M 691 4666 
L 3169 4666 
L 3169 4134 
L 1269 4134 
L 1269 2991 
Q 1406 3038 1543 3061 
Q 1681 3084 1819 3084 
Q 2600 3084 3056 2656 
Q 3513 2228 3513 1497 
Q 3513 744 3044 326 
Q 2575 -91 1722 -91 
Q 1428 -91 1123 -41 
Q 819 9 494 109 
L 494 744 
Q 775 591 1075 516 
Q 1375 441 1709 441 
Q 2250 441 2565 725 
Q 2881 1009 2881 1497 
Q 2881 1984 2565 2268 
Q 2250 2553 1709 2553 
Q 1456 2553 1204 2497 
Q 953 2441 691 2322 
L 691 4666 
z
" transform="scale(0.015625)"/>
      </defs>
      <use xlink:href="#DejaVuSans-79"/>
      <use xlink:href="#DejaVuSans-65" x="59.179688"/>
      <use xlink:href="#DejaVuSans-61" x="120.703125"/>
      <use xlink:href="#DejaVuSans-72" x="181.982422"/>
      <use xlink:href="#DejaVuSans-20" x="223.095703"/>
      <use xlink:href="#DejaVuSans-32" x="254.882812"/>
      <use xlink:href="#DejaVuSans-30" x="318.505859"/>
      <use xlink:href="#DejaVuSans-35" x="382.128906"/>
      <use xlink:href="#DejaVuSans-30" x="445.751953"/>
     </g>
    </g>
    <g id="line2d_33">
     <path d="M 55.965625 187.100312 
L 65.965625 187.100312 
L 75.965625 187.100312 
" style="fill: none; stroke-dasharray: 1.5,2.475; stroke-dashoffset: 0; stroke: #000000; stroke-width: 1.5"/>
    </g>
    <g id="text_19">
     <!-- year 2000 -->
     <g transform="translate(83.965625 190.600312)scale(0.1 -0.1)">
      <use xlink:href="#DejaVuSans-79"/>
      <use xlink:href="#DejaVuSans-65" x="59.179688"/>
      <use xlink:href="#DejaVuSans-61" x="120.703125"/>
      <use xlink:href="#DejaVuSans-72" x="181.982422"/>
      <use xlink:href="#DejaVuSans-20" x="223.095703"/>
      <use xlink:href="#DejaVuSans-32" x="254.882812"/>
      <use xlink:href="#DejaVuSans-30" x="318.505859"/>
      <use xlink:href="#DejaVuSans-30" x="382.128906"/>
      <use xlink:href="#DejaVuSans-30" x="445.751953"/>
     </g>
    </g>
    <g id="line2d_34">
     <path d="M 55.965625 201.778437 
L 65.965625 201.778437 
L 75.965625 201.778437 
" style="fill: none; stroke-dasharray: 9.6,2.4,1.5,2.4; stroke-dashoffset: 0; stroke: #000000; stroke-width: 1.5"/>
    </g>
    <g id="text_20">
     <!-- year 1900 -->
     <g transform="translate(83.965625 205.278437)scale(0.1 -0.1)">
      <defs>
       <path id="DejaVuSans-39" d="M 703 97 
L 703 672 
Q 941 559 1184 500 
Q 1428 441 1663 441 
Q 2288 441 2617 861 
Q 2947 1281 2994 2138 
Q 2813 1869 2534 1725 
Q 2256 1581 1919 1581 
Q 1219 1581 811 2004 
Q 403 2428 403 3163 
Q 403 3881 828 4315 
Q 1253 4750 1959 4750 
Q 2769 4750 3195 4129 
Q 3622 3509 3622 2328 
Q 3622 1225 3098 567 
Q 2575 -91 1691 -91 
Q 1453 -91 1209 -44 
Q 966 3 703 97 
z
M 1959 2075 
Q 2384 2075 2632 2365 
Q 2881 2656 2881 3163 
Q 2881 3666 2632 3958 
Q 2384 4250 1959 4250 
Q 1534 4250 1286 3958 
Q 1038 3666 1038 3163 
Q 1038 2656 1286 2365 
Q 1534 2075 1959 2075 
z
" transform="scale(0.015625)"/>
      </defs>
      <use xlink:href="#DejaVuSans-79"/>
      <use xlink:href="#DejaVuSans-65" x="59.179688"/>
      <use xlink:href="#DejaVuSans-61" x="120.703125"/>
      <use xlink:href="#DejaVuSans-72" x="181.982422"/>
      <use xlink:href="#DejaVuSans-20" x="223.095703"/>
      <use xlink:href="#DejaVuSans-31" x="254.882812"/>
      <use xlink:href="#DejaVuSans-39" x="318.505859"/>
      <use xlink:href="#DejaVuSans-30" x="382.128906"/>
      <use xlink:href="#DejaVuSans-30" x="445.751953"/>
     </g>
    </g>
   </g>
  </g>
 </g>
 <defs>
  <clipPath id="p8d2aad1c1d">
   <rect x="46.965625" y="22.318125" width="279" height="194.04"/>
  </clipPath>
 </defs>
</svg>
