<?xml version="1.0" encoding="utf-8" standalone="no"?>
<!DOCTYPE svg PUBLIC "-//W3C//DTD SVG 1.1//EN"
  "http://www.w3.org/Graphics/SVG/1.1/DTD/svg11.dtd">
<svg xmlns:xlink="http://www.w3.org/1999/xlink" width="336.346875pt" height="253.914375pt" viewBox="0 0 336.346875 253.914375" xmlns="http://www.w3.org/2000/svg" version="1.1">
 <metadata>
  <rdf:RDF xmlns:dc="http://purl.org/dc/elements/1.1/" xmlns:cc="http://creativecommons.org/ns#" xmlns:rdf="http://www.w3.org/1999/02/22-rdf-syntax-ns#">
   <cc:Work>
    <dc:type rdf:resource="http://purl.org/dc/dcmitype/StillImage"/>
    <dc:date>2023-02-14T17:23:08.771244</dc:date>
    <dc:format>image/svg+xml</dc:format>
    <dc:creator>
     <cc:Agent>
      <dc:title>Matplotlib v3.5.2, https://matplotlib.org/</dc:title>
     </cc:Agent>
    </dc:creator>
   </cc:Work>
  </rdf:RDF>
 </metadata>
 <defs>
  <style type="text/css">*{stroke-linejoin: round; stroke-linecap: butt}</style>
 </defs>
 <g id="figure_1">
  <g id="patch_1">
   <path d="M 0 253.914375 
L 336.346875 253.914375 
L 336.346875 0 
L 0 0 
z
" style="fill: #ffffff"/>
  </g>
  <g id="axes_1">
   <g id="patch_2">
    <path d="M 40.603125 216.358125 
L 319.603125 216.358125 
L 319.603125 22.318125 
L 40.603125 22.318125 
z
" style="fill: #ffffff"/>
   </g>
   <g id="matplotlib.axis_1">
    <g id="xtick_1">
     <g id="line2d_1">
      <path d="M 40.603125 216.358125 
L 40.603125 22.318125 
" clip-path="url(#pd349a46f71)" style="fill: none; stroke: #b0b0b0; stroke-width: 0.8; stroke-linecap: square"/>
     </g>
     <g id="line2d_2">
      <defs>
       <path id="m6c8d7e1214" d="M 0 0 
L 0 3.5 
" style="stroke: #000000; stroke-width: 0.8"/>
      </defs>
      <g>
       <use xlink:href="#m6c8d7e1214" x="40.603125" y="216.358125" style="stroke: #000000; stroke-width: 0.8"/>
      </g>
     </g>
     <g id="text_1">
      <!-- 0 -->
      <g transform="translate(37.421875 230.956562)scale(0.1 -0.1)">
       <defs>
        <path id="DejaVuSans-30" d="M 2034 4250 
Q 1547 4250 1301 3770 
Q 1056 3291 1056 2328 
Q 1056 1369 1301 889 
Q 1547 409 2034 409 
Q 2525 409 2770 889 
Q 3016 1369 3016 2328 
Q 3016 3291 2770 3770 
Q 2525 4250 2034 4250 
z
M 2034 4750 
Q 2819 4750 3233 4129 
Q 3647 3509 3647 2328 
Q 3647 1150 3233 529 
Q 2819 -91 2034 -91 
Q 1250 -91 836 529 
Q 422 1150 422 2328 
Q 422 3509 836 4129 
Q 1250 4750 2034 4750 
z
" transform="scale(0.015625)"/>
       </defs>
       <use xlink:href="#DejaVuSans-30"/>
      </g>
     </g>
    </g>
    <g id="xtick_2">
     <g id="line2d_3">
      <path d="M 75.478125 216.358125 
L 75.478125 22.318125 
" clip-path="url(#pd349a46f71)" style="fill: none; stroke: #b0b0b0; stroke-width: 0.8; stroke-linecap: square"/>
     </g>
     <g id="line2d_4">
      <g>
       <use xlink:href="#m6c8d7e1214" x="75.478125" y="216.358125" style="stroke: #000000; stroke-width: 0.8"/>
      </g>
     </g>
     <g id="text_2">
      <!-- 50 -->
      <g transform="translate(69.115625 230.956562)scale(0.1 -0.1)">
       <defs>
        <path id="DejaVuSans-35" d="M 691 4666 
L 3169 4666 
L 3169 4134 
L 1269 4134 
L 1269 2991 
Q 1406 3038 1543 3061 
Q 1681 3084 1819 3084 
Q 2600 3084 3056 2656 
Q 3513 2228 3513 1497 
Q 3513 744 3044 326 
Q 2575 -91 1722 -91 
Q 1428 -91 1123 -41 
Q 819 9 494 109 
L 494 744 
Q 775 591 1075 516 
Q 1375 441 1709 441 
Q 2250 441 2565 725 
Q 2881 1009 2881 1497 
Q 2881 1984 2565 2268 
Q 2250 2553 1709 2553 
Q 1456 2553 1204 2497 
Q 953 2441 691 2322 
L 691 4666 
z
" transform="scale(0.015625)"/>
       </defs>
       <use xlink:href="#DejaVuSans-35"/>
       <use xlink:href="#DejaVuSans-30" x="63.623047"/>
      </g>
     </g>
    </g>
    <g id="xtick_3">
     <g id="line2d_5">
      <path d="M 110.353125 216.358125 
L 110.353125 22.318125 
" clip-path="url(#pd349a46f71)" style="fill: none; stroke: #b0b0b0; stroke-width: 0.8; stroke-linecap: square"/>
     </g>
     <g id="line2d_6">
      <g>
       <use xlink:href="#m6c8d7e1214" x="110.353125" y="216.358125" style="stroke: #000000; stroke-width: 0.8"/>
      </g>
     </g>
     <g id="text_3">
      <!-- 100 -->
      <g transform="translate(100.809375 230.956562)scale(0.1 -0.1)">
       <defs>
        <path id="DejaVuSans-31" d="M 794 531 
L 1825 531 
L 1825 4091 
L 703 3866 
L 703 4441 
L 1819 4666 
L 2450 4666 
L 2450 531 
L 3481 531 
L 3481 0 
L 794 0 
L 794 531 
z
" transform="scale(0.015625)"/>
       </defs>
       <use xlink:href="#DejaVuSans-31"/>
       <use xlink:href="#DejaVuSans-30" x="63.623047"/>
       <use xlink:href="#DejaVuSans-30" x="127.246094"/>
      </g>
     </g>
    </g>
    <g id="xtick_4">
     <g id="line2d_7">
      <path d="M 145.228125 216.358125 
L 145.228125 22.318125 
" clip-path="url(#pd349a46f71)" style="fill: none; stroke: #b0b0b0; stroke-width: 0.8; stroke-linecap: square"/>
     </g>
     <g id="line2d_8">
      <g>
       <use xlink:href="#m6c8d7e1214" x="145.228125" y="216.358125" style="stroke: #000000; stroke-width: 0.8"/>
      </g>
     </g>
     <g id="text_4">
      <!-- 150 -->
      <g transform="translate(135.684375 230.956562)scale(0.1 -0.1)">
       <use xlink:href="#DejaVuSans-31"/>
       <use xlink:href="#DejaVuSans-35" x="63.623047"/>
       <use xlink:href="#DejaVuSans-30" x="127.246094"/>
      </g>
     </g>
    </g>
    <g id="xtick_5">
     <g id="line2d_9">
      <path d="M 180.103125 216.358125 
L 180.103125 22.318125 
" clip-path="url(#pd349a46f71)" style="fill: none; stroke: #b0b0b0; stroke-width: 0.8; stroke-linecap: square"/>
     </g>
     <g id="line2d_10">
      <g>
       <use xlink:href="#m6c8d7e1214" x="180.103125" y="216.358125" style="stroke: #000000; stroke-width: 0.8"/>
      </g>
     </g>
     <g id="text_5">
      <!-- 200 -->
      <g transform="translate(170.559375 230.956562)scale(0.1 -0.1)">
       <defs>
        <path id="DejaVuSans-32" d="M 1228 531 
L 3431 531 
L 3431 0 
L 469 0 
L 469 531 
Q 828 903 1448 1529 
Q 2069 2156 2228 2338 
Q 2531 2678 2651 2914 
Q 2772 3150 2772 3378 
Q 2772 3750 2511 3984 
Q 2250 4219 1831 4219 
Q 1534 4219 1204 4116 
Q 875 4013 500 3803 
L 500 4441 
Q 881 4594 1212 4672 
Q 1544 4750 1819 4750 
Q 2544 4750 2975 4387 
Q 3406 4025 3406 3419 
Q 3406 3131 3298 2873 
Q 3191 2616 2906 2266 
Q 2828 2175 2409 1742 
Q 1991 1309 1228 531 
z
" transform="scale(0.015625)"/>
       </defs>
       <use xlink:href="#DejaVuSans-32"/>
       <use xlink:href="#DejaVuSans-30" x="63.623047"/>
       <use xlink:href="#DejaVuSans-30" x="127.246094"/>
      </g>
     </g>
    </g>
    <g id="xtick_6">
     <g id="line2d_11">
      <path d="M 214.978125 216.358125 
L 214.978125 22.318125 
" clip-path="url(#pd349a46f71)" style="fill: none; stroke: #b0b0b0; stroke-width: 0.8; stroke-linecap: square"/>
     </g>
     <g id="line2d_12">
      <g>
       <use xlink:href="#m6c8d7e1214" x="214.978125" y="216.358125" style="stroke: #000000; stroke-width: 0.8"/>
      </g>
     </g>
     <g id="text_6">
      <!-- 250 -->
      <g transform="translate(205.434375 230.956562)scale(0.1 -0.1)">
       <use xlink:href="#DejaVuSans-32"/>
       <use xlink:href="#DejaVuSans-35" x="63.623047"/>
       <use xlink:href="#DejaVuSans-30" x="127.246094"/>
      </g>
     </g>
    </g>
    <g id="xtick_7">
     <g id="line2d_13">
      <path d="M 249.853125 216.358125 
L 249.853125 22.318125 
" clip-path="url(#pd349a46f71)" style="fill: none; stroke: #b0b0b0; stroke-width: 0.8; stroke-linecap: square"/>
     </g>
     <g id="line2d_14">
      <g>
       <use xlink:href="#m6c8d7e1214" x="249.853125" y="216.358125" style="stroke: #000000; stroke-width: 0.8"/>
      </g>
     </g>
     <g id="text_7">
      <!-- 300 -->
      <g transform="translate(240.309375 230.956562)scale(0.1 -0.1)">
       <defs>
        <path id="DejaVuSans-33" d="M 2597 2516 
Q 3050 2419 3304 2112 
Q 3559 1806 3559 1356 
Q 3559 666 3084 287 
Q 2609 -91 1734 -91 
Q 1441 -91 1130 -33 
Q 819 25 488 141 
L 488 750 
Q 750 597 1062 519 
Q 1375 441 1716 441 
Q 2309 441 2620 675 
Q 2931 909 2931 1356 
Q 2931 1769 2642 2001 
Q 2353 2234 1838 2234 
L 1294 2234 
L 1294 2753 
L 1863 2753 
Q 2328 2753 2575 2939 
Q 2822 3125 2822 3475 
Q 2822 3834 2567 4026 
Q 2313 4219 1838 4219 
Q 1578 4219 1281 4162 
Q 984 4106 628 3988 
L 628 4550 
Q 988 4650 1302 4700 
Q 1616 4750 1894 4750 
Q 2613 4750 3031 4423 
Q 3450 4097 3450 3541 
Q 3450 3153 3228 2886 
Q 3006 2619 2597 2516 
z
" transform="scale(0.015625)"/>
       </defs>
       <use xlink:href="#DejaVuSans-33"/>
       <use xlink:href="#DejaVuSans-30" x="63.623047"/>
       <use xlink:href="#DejaVuSans-30" x="127.246094"/>
      </g>
     </g>
    </g>
    <g id="xtick_8">
     <g id="line2d_15">
      <path d="M 284.728125 216.358125 
L 284.728125 22.318125 
" clip-path="url(#pd349a46f71)" style="fill: none; stroke: #b0b0b0; stroke-width: 0.8; stroke-linecap: square"/>
     </g>
     <g id="line2d_16">
      <g>
       <use xlink:href="#m6c8d7e1214" x="284.728125" y="216.358125" style="stroke: #000000; stroke-width: 0.8"/>
      </g>
     </g>
     <g id="text_8">
      <!-- 350 -->
      <g transform="translate(275.184375 230.956562)scale(0.1 -0.1)">
       <use xlink:href="#DejaVuSans-33"/>
       <use xlink:href="#DejaVuSans-35" x="63.623047"/>
       <use xlink:href="#DejaVuSans-30" x="127.246094"/>
      </g>
     </g>
    </g>
    <g id="xtick_9">
     <g id="line2d_17">
      <path d="M 319.603125 216.358125 
L 319.603125 22.318125 
" clip-path="url(#pd349a46f71)" style="fill: none; stroke: #b0b0b0; stroke-width: 0.8; stroke-linecap: square"/>
     </g>
     <g id="line2d_18">
      <g>
       <use xlink:href="#m6c8d7e1214" x="319.603125" y="216.358125" style="stroke: #000000; stroke-width: 0.8"/>
      </g>
     </g>
     <g id="text_9">
      <!-- 400 -->
      <g transform="translate(310.059375 230.956562)scale(0.1 -0.1)">
       <defs>
        <path id="DejaVuSans-34" d="M 2419 4116 
L 825 1625 
L 2419 1625 
L 2419 4116 
z
M 2253 4666 
L 3047 4666 
L 3047 1625 
L 3713 1625 
L 3713 1100 
L 3047 1100 
L 3047 0 
L 2419 0 
L 2419 1100 
L 313 1100 
L 313 1709 
L 2253 4666 
z
" transform="scale(0.015625)"/>
       </defs>
       <use xlink:href="#DejaVuSans-34"/>
       <use xlink:href="#DejaVuSans-30" x="63.623047"/>
       <use xlink:href="#DejaVuSans-30" x="127.246094"/>
      </g>
     </g>
    </g>
    <g id="text_10">
     <!-- annual income ($k) -->
     <g transform="translate(131.610156 244.634687)scale(0.1 -0.1)">
      <defs>
       <path id="DejaVuSans-61" d="M 2194 1759 
Q 1497 1759 1228 1600 
Q 959 1441 959 1056 
Q 959 750 1161 570 
Q 1363 391 1709 391 
Q 2188 391 2477 730 
Q 2766 1069 2766 1631 
L 2766 1759 
L 2194 1759 
z
M 3341 1997 
L 3341 0 
L 2766 0 
L 2766 531 
Q 2569 213 2275 61 
Q 1981 -91 1556 -91 
Q 1019 -91 701 211 
Q 384 513 384 1019 
Q 384 1609 779 1909 
Q 1175 2209 1959 2209 
L 2766 2209 
L 2766 2266 
Q 2766 2663 2505 2880 
Q 2244 3097 1772 3097 
Q 1472 3097 1187 3025 
Q 903 2953 641 2809 
L 641 3341 
Q 956 3463 1253 3523 
Q 1550 3584 1831 3584 
Q 2591 3584 2966 3190 
Q 3341 2797 3341 1997 
z
" transform="scale(0.015625)"/>
       <path id="DejaVuSans-6e" d="M 3513 2113 
L 3513 0 
L 2938 0 
L 2938 2094 
Q 2938 2591 2744 2837 
Q 2550 3084 2163 3084 
Q 1697 3084 1428 2787 
Q 1159 2491 1159 1978 
L 1159 0 
L 581 0 
L 581 3500 
L 1159 3500 
L 1159 2956 
Q 1366 3272 1645 3428 
Q 1925 3584 2291 3584 
Q 2894 3584 3203 3211 
Q 3513 2838 3513 2113 
z
" transform="scale(0.015625)"/>
       <path id="DejaVuSans-75" d="M 544 1381 
L 544 3500 
L 1119 3500 
L 1119 1403 
Q 1119 906 1312 657 
Q 1506 409 1894 409 
Q 2359 409 2629 706 
Q 2900 1003 2900 1516 
L 2900 3500 
L 3475 3500 
L 3475 0 
L 2900 0 
L 2900 538 
Q 2691 219 2414 64 
Q 2138 -91 1772 -91 
Q 1169 -91 856 284 
Q 544 659 544 1381 
z
M 1991 3584 
L 1991 3584 
z
" transform="scale(0.015625)"/>
       <path id="DejaVuSans-6c" d="M 603 4863 
L 1178 4863 
L 1178 0 
L 603 0 
L 603 4863 
z
" transform="scale(0.015625)"/>
       <path id="DejaVuSans-20" transform="scale(0.015625)"/>
       <path id="DejaVuSans-69" d="M 603 3500 
L 1178 3500 
L 1178 0 
L 603 0 
L 603 3500 
z
M 603 4863 
L 1178 4863 
L 1178 4134 
L 603 4134 
L 603 4863 
z
" transform="scale(0.015625)"/>
       <path id="DejaVuSans-63" d="M 3122 3366 
L 3122 2828 
Q 2878 2963 2633 3030 
Q 2388 3097 2138 3097 
Q 1578 3097 1268 2742 
Q 959 2388 959 1747 
Q 959 1106 1268 751 
Q 1578 397 2138 397 
Q 2388 397 2633 464 
Q 2878 531 3122 666 
L 3122 134 
Q 2881 22 2623 -34 
Q 2366 -91 2075 -91 
Q 1284 -91 818 406 
Q 353 903 353 1747 
Q 353 2603 823 3093 
Q 1294 3584 2113 3584 
Q 2378 3584 2631 3529 
Q 2884 3475 3122 3366 
z
" transform="scale(0.015625)"/>
       <path id="DejaVuSans-6f" d="M 1959 3097 
Q 1497 3097 1228 2736 
Q 959 2375 959 1747 
Q 959 1119 1226 758 
Q 1494 397 1959 397 
Q 2419 397 2687 759 
Q 2956 1122 2956 1747 
Q 2956 2369 2687 2733 
Q 2419 3097 1959 3097 
z
M 1959 3584 
Q 2709 3584 3137 3096 
Q 3566 2609 3566 1747 
Q 3566 888 3137 398 
Q 2709 -91 1959 -91 
Q 1206 -91 779 398 
Q 353 888 353 1747 
Q 353 2609 779 3096 
Q 1206 3584 1959 3584 
z
" transform="scale(0.015625)"/>
       <path id="DejaVuSans-6d" d="M 3328 2828 
Q 3544 3216 3844 3400 
Q 4144 3584 4550 3584 
Q 5097 3584 5394 3201 
Q 5691 2819 5691 2113 
L 5691 0 
L 5113 0 
L 5113 2094 
Q 5113 2597 4934 2840 
Q 4756 3084 4391 3084 
Q 3944 3084 3684 2787 
Q 3425 2491 3425 1978 
L 3425 0 
L 2847 0 
L 2847 2094 
Q 2847 2600 2669 2842 
Q 2491 3084 2119 3084 
Q 1678 3084 1418 2786 
Q 1159 2488 1159 1978 
L 1159 0 
L 581 0 
L 581 3500 
L 1159 3500 
L 1159 2956 
Q 1356 3278 1631 3431 
Q 1906 3584 2284 3584 
Q 2666 3584 2933 3390 
Q 3200 3197 3328 2828 
z
" transform="scale(0.015625)"/>
       <path id="DejaVuSans-65" d="M 3597 1894 
L 3597 1613 
L 953 1613 
Q 991 1019 1311 708 
Q 1631 397 2203 397 
Q 2534 397 2845 478 
Q 3156 559 3463 722 
L 3463 178 
Q 3153 47 2828 -22 
Q 2503 -91 2169 -91 
Q 1331 -91 842 396 
Q 353 884 353 1716 
Q 353 2575 817 3079 
Q 1281 3584 2069 3584 
Q 2775 3584 3186 3129 
Q 3597 2675 3597 1894 
z
M 3022 2063 
Q 3016 2534 2758 2815 
Q 2500 3097 2075 3097 
Q 1594 3097 1305 2825 
Q 1016 2553 972 2059 
L 3022 2063 
z
" transform="scale(0.015625)"/>
       <path id="DejaVuSans-28" d="M 1984 4856 
Q 1566 4138 1362 3434 
Q 1159 2731 1159 2009 
Q 1159 1288 1364 580 
Q 1569 -128 1984 -844 
L 1484 -844 
Q 1016 -109 783 600 
Q 550 1309 550 2009 
Q 550 2706 781 3412 
Q 1013 4119 1484 4856 
L 1984 4856 
z
" transform="scale(0.015625)"/>
       <path id="DejaVuSans-24" d="M 2163 -941 
L 1850 -941 
L 1847 0 
Q 1519 6 1191 76 
Q 863 147 531 288 
L 531 850 
Q 850 650 1176 548 
Q 1503 447 1850 444 
L 1850 1869 
Q 1159 1981 845 2250 
Q 531 2519 531 2988 
Q 531 3497 872 3790 
Q 1213 4084 1850 4128 
L 1850 4863 
L 2163 4863 
L 2163 4138 
Q 2453 4125 2725 4076 
Q 2997 4028 3256 3944 
L 3256 3397 
Q 2997 3528 2723 3600 
Q 2450 3672 2163 3684 
L 2163 2350 
Q 2872 2241 3206 1959 
Q 3541 1678 3541 1191 
Q 3541 663 3186 358 
Q 2831 53 2163 6 
L 2163 -941 
z
M 1850 2406 
L 1850 3688 
Q 1488 3647 1297 3481 
Q 1106 3316 1106 3041 
Q 1106 2772 1282 2622 
Q 1459 2472 1850 2406 
z
M 2163 1806 
L 2163 453 
Q 2559 506 2761 678 
Q 2963 850 2963 1131 
Q 2963 1406 2770 1568 
Q 2578 1731 2163 1806 
z
" transform="scale(0.015625)"/>
       <path id="DejaVuSans-6b" d="M 581 4863 
L 1159 4863 
L 1159 1991 
L 2875 3500 
L 3609 3500 
L 1753 1863 
L 3688 0 
L 2938 0 
L 1159 1709 
L 1159 0 
L 581 0 
L 581 4863 
z
" transform="scale(0.015625)"/>
       <path id="DejaVuSans-29" d="M 513 4856 
L 1013 4856 
Q 1481 4119 1714 3412 
Q 1947 2706 1947 2009 
Q 1947 1309 1714 600 
Q 1481 -109 1013 -844 
L 513 -844 
Q 928 -128 1133 580 
Q 1338 1288 1338 2009 
Q 1338 2731 1133 3434 
Q 928 4138 513 4856 
z
" transform="scale(0.015625)"/>
      </defs>
      <use xlink:href="#DejaVuSans-61"/>
      <use xlink:href="#DejaVuSans-6e" x="61.279297"/>
      <use xlink:href="#DejaVuSans-6e" x="124.658203"/>
      <use xlink:href="#DejaVuSans-75" x="188.037109"/>
      <use xlink:href="#DejaVuSans-61" x="251.416016"/>
      <use xlink:href="#DejaVuSans-6c" x="312.695312"/>
      <use xlink:href="#DejaVuSans-20" x="340.478516"/>
      <use xlink:href="#DejaVuSans-69" x="372.265625"/>
      <use xlink:href="#DejaVuSans-6e" x="400.048828"/>
      <use xlink:href="#DejaVuSans-63" x="463.427734"/>
      <use xlink:href="#DejaVuSans-6f" x="518.408203"/>
      <use xlink:href="#DejaVuSans-6d" x="579.589844"/>
      <use xlink:href="#DejaVuSans-65" x="677.001953"/>
      <use xlink:href="#DejaVuSans-20" x="738.525391"/>
      <use xlink:href="#DejaVuSans-28" x="770.3125"/>
      <use xlink:href="#DejaVuSans-24" x="809.326172"/>
      <use xlink:href="#DejaVuSans-6b" x="872.949219"/>
      <use xlink:href="#DejaVuSans-29" x="930.859375"/>
     </g>
    </g>
   </g>
   <g id="matplotlib.axis_2">
    <g id="ytick_1">
     <g id="line2d_19">
      <path d="M 40.603125 209.171458 
L 319.603125 209.171458 
" clip-path="url(#pd349a46f71)" style="fill: none; stroke: #b0b0b0; stroke-width: 0.8; stroke-linecap: square"/>
     </g>
     <g id="line2d_20">
      <defs>
       <path id="me03e1ea7c7" d="M 0 0 
L -3.5 0 
" style="stroke: #000000; stroke-width: 0.8"/>
      </defs>
      <g>
       <use xlink:href="#me03e1ea7c7" x="40.603125" y="209.171458" style="stroke: #000000; stroke-width: 0.8"/>
      </g>
     </g>
     <g id="text_11">
      <!-- 10 -->
      <g transform="translate(20.878125 212.970677)scale(0.1 -0.1)">
       <use xlink:href="#DejaVuSans-31"/>
       <use xlink:href="#DejaVuSans-30" x="63.623047"/>
      </g>
     </g>
    </g>
    <g id="ytick_2">
     <g id="line2d_21">
      <path d="M 40.603125 173.238125 
L 319.603125 173.238125 
" clip-path="url(#pd349a46f71)" style="fill: none; stroke: #b0b0b0; stroke-width: 0.8; stroke-linecap: square"/>
     </g>
     <g id="line2d_22">
      <g>
       <use xlink:href="#me03e1ea7c7" x="40.603125" y="173.238125" style="stroke: #000000; stroke-width: 0.8"/>
      </g>
     </g>
     <g id="text_12">
      <!-- 15 -->
      <g transform="translate(20.878125 177.037344)scale(0.1 -0.1)">
       <use xlink:href="#DejaVuSans-31"/>
       <use xlink:href="#DejaVuSans-35" x="63.623047"/>
      </g>
     </g>
    </g>
    <g id="ytick_3">
     <g id="line2d_23">
      <path d="M 40.603125 137.304792 
L 319.603125 137.304792 
" clip-path="url(#pd349a46f71)" style="fill: none; stroke: #b0b0b0; stroke-width: 0.8; stroke-linecap: square"/>
     </g>
     <g id="line2d_24">
      <g>
       <use xlink:href="#me03e1ea7c7" x="40.603125" y="137.304792" style="stroke: #000000; stroke-width: 0.8"/>
      </g>
     </g>
     <g id="text_13">
      <!-- 20 -->
      <g transform="translate(20.878125 141.10401)scale(0.1 -0.1)">
       <use xlink:href="#DejaVuSans-32"/>
       <use xlink:href="#DejaVuSans-30" x="63.623047"/>
      </g>
     </g>
    </g>
    <g id="ytick_4">
     <g id="line2d_25">
      <path d="M 40.603125 101.371458 
L 319.603125 101.371458 
" clip-path="url(#pd349a46f71)" style="fill: none; stroke: #b0b0b0; stroke-width: 0.8; stroke-linecap: square"/>
     </g>
     <g id="line2d_26">
      <g>
       <use xlink:href="#me03e1ea7c7" x="40.603125" y="101.371458" style="stroke: #000000; stroke-width: 0.8"/>
      </g>
     </g>
     <g id="text_14">
      <!-- 25 -->
      <g transform="translate(20.878125 105.170677)scale(0.1 -0.1)">
       <use xlink:href="#DejaVuSans-32"/>
       <use xlink:href="#DejaVuSans-35" x="63.623047"/>
      </g>
     </g>
    </g>
    <g id="ytick_5">
     <g id="line2d_27">
      <path d="M 40.603125 65.438125 
L 319.603125 65.438125 
" clip-path="url(#pd349a46f71)" style="fill: none; stroke: #b0b0b0; stroke-width: 0.8; stroke-linecap: square"/>
     </g>
     <g id="line2d_28">
      <g>
       <use xlink:href="#me03e1ea7c7" x="40.603125" y="65.438125" style="stroke: #000000; stroke-width: 0.8"/>
      </g>
     </g>
     <g id="text_15">
      <!-- 30 -->
      <g transform="translate(20.878125 69.237344)scale(0.1 -0.1)">
       <use xlink:href="#DejaVuSans-33"/>
       <use xlink:href="#DejaVuSans-30" x="63.623047"/>
      </g>
     </g>
    </g>
    <g id="ytick_6">
     <g id="line2d_29">
      <path d="M 40.603125 29.504792 
L 319.603125 29.504792 
" clip-path="url(#pd349a46f71)" style="fill: none; stroke: #b0b0b0; stroke-width: 0.8; stroke-linecap: square"/>
     </g>
     <g id="line2d_30">
      <g>
       <use xlink:href="#me03e1ea7c7" x="40.603125" y="29.504792" style="stroke: #000000; stroke-width: 0.8"/>
      </g>
     </g>
     <g id="text_16">
      <!-- 35 -->
      <g transform="translate(20.878125 33.30401)scale(0.1 -0.1)">
       <use xlink:href="#DejaVuSans-33"/>
       <use xlink:href="#DejaVuSans-35" x="63.623047"/>
      </g>
     </g>
    </g>
    <g id="text_17">
     <!-- effective tax rate (%) -->
     <g transform="translate(14.798438 172.705312)rotate(-90)scale(0.1 -0.1)">
      <defs>
       <path id="DejaVuSans-66" d="M 2375 4863 
L 2375 4384 
L 1825 4384 
Q 1516 4384 1395 4259 
Q 1275 4134 1275 3809 
L 1275 3500 
L 2222 3500 
L 2222 3053 
L 1275 3053 
L 1275 0 
L 697 0 
L 697 3053 
L 147 3053 
L 147 3500 
L 697 3500 
L 697 3744 
Q 697 4328 969 4595 
Q 1241 4863 1831 4863 
L 2375 4863 
z
" transform="scale(0.015625)"/>
       <path id="DejaVuSans-74" d="M 1172 4494 
L 1172 3500 
L 2356 3500 
L 2356 3053 
L 1172 3053 
L 1172 1153 
Q 1172 725 1289 603 
Q 1406 481 1766 481 
L 2356 481 
L 2356 0 
L 1766 0 
Q 1100 0 847 248 
Q 594 497 594 1153 
L 594 3053 
L 172 3053 
L 172 3500 
L 594 3500 
L 594 4494 
L 1172 4494 
z
" transform="scale(0.015625)"/>
       <path id="DejaVuSans-76" d="M 191 3500 
L 800 3500 
L 1894 563 
L 2988 3500 
L 3597 3500 
L 2284 0 
L 1503 0 
L 191 3500 
z
" transform="scale(0.015625)"/>
       <path id="DejaVuSans-78" d="M 3513 3500 
L 2247 1797 
L 3578 0 
L 2900 0 
L 1881 1375 
L 863 0 
L 184 0 
L 1544 1831 
L 300 3500 
L 978 3500 
L 1906 2253 
L 2834 3500 
L 3513 3500 
z
" transform="scale(0.015625)"/>
       <path id="DejaVuSans-72" d="M 2631 2963 
Q 2534 3019 2420 3045 
Q 2306 3072 2169 3072 
Q 1681 3072 1420 2755 
Q 1159 2438 1159 1844 
L 1159 0 
L 581 0 
L 581 3500 
L 1159 3500 
L 1159 2956 
Q 1341 3275 1631 3429 
Q 1922 3584 2338 3584 
Q 2397 3584 2469 3576 
Q 2541 3569 2628 3553 
L 2631 2963 
z
" transform="scale(0.015625)"/>
       <path id="DejaVuSans-25" d="M 4653 2053 
Q 4381 2053 4226 1822 
Q 4072 1591 4072 1178 
Q 4072 772 4226 539 
Q 4381 306 4653 306 
Q 4919 306 5073 539 
Q 5228 772 5228 1178 
Q 5228 1588 5073 1820 
Q 4919 2053 4653 2053 
z
M 4653 2450 
Q 5147 2450 5437 2106 
Q 5728 1763 5728 1178 
Q 5728 594 5436 251 
Q 5144 -91 4653 -91 
Q 4153 -91 3862 251 
Q 3572 594 3572 1178 
Q 3572 1766 3864 2108 
Q 4156 2450 4653 2450 
z
M 1428 4353 
Q 1159 4353 1004 4120 
Q 850 3888 850 3481 
Q 850 3069 1003 2837 
Q 1156 2606 1428 2606 
Q 1700 2606 1854 2837 
Q 2009 3069 2009 3481 
Q 2009 3884 1853 4118 
Q 1697 4353 1428 4353 
z
M 4250 4750 
L 4750 4750 
L 1831 -91 
L 1331 -91 
L 4250 4750 
z
M 1428 4750 
Q 1922 4750 2215 4408 
Q 2509 4066 2509 3481 
Q 2509 2891 2217 2550 
Q 1925 2209 1428 2209 
Q 931 2209 642 2551 
Q 353 2894 353 3481 
Q 353 4063 643 4406 
Q 934 4750 1428 4750 
z
" transform="scale(0.015625)"/>
      </defs>
      <use xlink:href="#DejaVuSans-65"/>
      <use xlink:href="#DejaVuSans-66" x="61.523438"/>
      <use xlink:href="#DejaVuSans-66" x="96.728516"/>
      <use xlink:href="#DejaVuSans-65" x="131.933594"/>
      <use xlink:href="#DejaVuSans-63" x="193.457031"/>
      <use xlink:href="#DejaVuSans-74" x="248.4375"/>
      <use xlink:href="#DejaVuSans-69" x="287.646484"/>
      <use xlink:href="#DejaVuSans-76" x="315.429688"/>
      <use xlink:href="#DejaVuSans-65" x="374.609375"/>
      <use xlink:href="#DejaVuSans-20" x="436.132812"/>
      <use xlink:href="#DejaVuSans-74" x="467.919922"/>
      <use xlink:href="#DejaVuSans-61" x="507.128906"/>
      <use xlink:href="#DejaVuSans-78" x="568.408203"/>
      <use xlink:href="#DejaVuSans-20" x="627.587891"/>
      <use xlink:href="#DejaVuSans-72" x="659.375"/>
      <use xlink:href="#DejaVuSans-61" x="700.488281"/>
      <use xlink:href="#DejaVuSans-74" x="761.767578"/>
      <use xlink:href="#DejaVuSans-65" x="800.976562"/>
      <use xlink:href="#DejaVuSans-20" x="862.5"/>
      <use xlink:href="#DejaVuSans-28" x="894.287109"/>
      <use xlink:href="#DejaVuSans-25" x="933.300781"/>
      <use xlink:href="#DejaVuSans-29" x="1028.320312"/>
     </g>
    </g>
   </g>
   <g id="line2d_31">
    <path d="M 40.603125 209.171458 
L 47.769938 209.171458 
L 47.769938 194.798125 
L 69.741188 194.798125 
L 69.741188 122.931458 
L 102.732938 122.931458 
L 102.732938 108.558125 
L 159.213 108.558125 
L 159.213 51.064792 
L 191.22825 51.064792 
L 191.22825 29.504792 
L 337.346875 29.504792 
" clip-path="url(#pd349a46f71)" style="fill: none; stroke-dasharray: 5.55,2.4; stroke-dashoffset: 0; stroke: #000000; stroke-width: 1.5"/>
    <defs>
     <path id="m2fad55d447" d="M 0 2.5 
C 0.663008 2.5 1.29895 2.236584 1.767767 1.767767 
C 2.236584 1.29895 2.5 0.663008 2.5 0 
C 2.5 -0.663008 2.236584 -1.29895 1.767767 -1.767767 
C 1.29895 -2.236584 0.663008 -2.5 0 -2.5 
C -0.663008 -2.5 -1.29895 -2.236584 -1.767767 -1.767767 
C -2.236584 -1.29895 -2.5 -0.663008 -2.5 0 
C -2.5 0.663008 -2.236584 1.29895 -1.767767 1.767767 
C -1.29895 2.236584 -0.663008 2.5 0 2.5 
z
" style="stroke: #000000"/>
    </defs>
    <g clip-path="url(#pd349a46f71)">
     <use xlink:href="#m2fad55d447" x="40.603125" y="209.171458" style="stroke: #000000"/>
     <use xlink:href="#m2fad55d447" x="47.769938" y="194.798125" style="stroke: #000000"/>
     <use xlink:href="#m2fad55d447" x="69.741188" y="122.931458" style="stroke: #000000"/>
     <use xlink:href="#m2fad55d447" x="102.732938" y="108.558125" style="stroke: #000000"/>
     <use xlink:href="#m2fad55d447" x="159.213" y="51.064792" style="stroke: #000000"/>
     <use xlink:href="#m2fad55d447" x="191.22825" y="29.504792" style="stroke: #000000"/>
     <use xlink:href="#m2fad55d447" x="417.183375" y="15.131458" style="stroke: #000000"/>
    </g>
   </g>
   <g id="line2d_32">
    <path d="M 47.578125 209.171458 
L 50.325852 205.39299 
L 53.07358 203.058528 
L 55.821307 201.567067 
L 58.569034 200.531817 
L 61.316761 199.771225 
L 64.064489 199.18879 
L 66.812216 198.728478 
L 69.559943 198.355525 
L 72.30767 192.22961 
L 75.055398 186.702764 
L 77.803125 181.992383 
L 80.550852 177.929992 
L 83.29858 174.390482 
L 86.046307 171.279006 
L 88.794034 168.522348 
L 91.541761 166.063088 
L 94.289489 163.855564 
L 97.037216 161.863004 
L 99.784943 160.055468 
L 102.53267 158.408328 
L 105.280398 156.335015 
L 108.028125 154.387994 
L 110.775852 152.593451 
L 113.52358 150.934149 
L 116.271307 149.395355 
L 119.019034 147.9644 
L 121.766761 146.630334 
L 124.514489 145.383637 
L 127.262216 144.215999 
L 130.009943 143.12013 
L 132.75767 142.089612 
L 135.505398 141.118767 
L 138.253125 140.202558 
L 141.000852 139.3365 
L 143.74858 138.516584 
L 146.496307 137.739219 
L 149.244034 137.001176 
L 151.991761 136.299545 
L 154.739489 135.631696 
L 157.487216 134.995247 
L 160.234943 133.896902 
L 162.98267 132.037114 
L 165.730398 130.259006 
L 168.478125 128.557312 
L 171.225852 126.92721 
L 173.97358 125.364276 
L 176.721307 123.864442 
L 179.469034 122.423962 
L 182.216761 121.039381 
L 184.964489 119.707507 
L 187.712216 118.425387 
L 190.459943 117.190285 
L 193.20767 115.720007 
L 195.955398 114.195112 
L 198.703125 112.723221 
L 201.450852 111.301618 
L 204.19858 109.92777 
L 206.946307 108.599309 
L 209.694034 107.314023 
L 212.441761 106.069841 
L 215.189489 104.864822 
L 217.937216 103.697146 
L 220.684943 102.565103 
L 223.43267 101.467087 
L 226.180398 100.401586 
L 228.928125 99.367177 
L 231.675852 98.362519 
L 234.42358 97.386346 
L 237.171307 96.437464 
L 239.919034 95.514744 
L 242.666761 94.617119 
L 245.414489 93.743579 
L 248.162216 92.893168 
L 250.909943 92.064978 
L 253.65767 91.25815 
L 256.405398 90.471868 
L 259.153125 89.705358 
L 261.900852 88.957882 
L 264.64858 88.22874 
L 267.396307 87.517266 
L 270.144034 86.822826 
L 272.891761 86.144815 
L 275.639489 85.482656 
L 278.387216 84.835801 
L 281.134943 84.203724 
L 283.88267 83.585926 
L 286.630398 82.981927 
L 289.378125 82.39127 
L 292.125852 81.813519 
L 294.87358 81.248254 
L 297.621307 80.695076 
L 300.369034 80.1536 
L 303.116761 79.623459 
L 305.864489 79.104302 
L 308.612216 78.595789 
L 311.359943 78.097598 
L 314.10767 77.609417 
L 316.855398 77.130947 
L 319.603125 76.661902 
" clip-path="url(#pd349a46f71)" style="fill: none; stroke-dasharray: 5.55,2.4; stroke-dashoffset: 0; stroke: #000000; stroke-width: 1.5"/>
   </g>
   <g id="line2d_33">
    <path d="M 40.603125 209.171458 
L 54.93675 209.171458 
L 54.93675 194.798125 
L 98.87925 194.798125 
L 98.87925 122.931458 
L 164.86275 122.931458 
L 164.86275 108.558125 
L 277.822875 108.558125 
L 277.822875 51.064792 
L 337.346875 51.064792 
" clip-path="url(#pd349a46f71)" style="fill: none; stroke: #000000; stroke-width: 1.5; stroke-linecap: square"/>
    <defs>
     <path id="med23bc454b" d="M -2.5 2.5 
L 2.5 2.5 
L 2.5 -2.5 
L -2.5 -2.5 
z
" style="stroke: #000000; stroke-linejoin: miter"/>
    </defs>
    <g clip-path="url(#pd349a46f71)">
     <use xlink:href="#med23bc454b" x="40.603125" y="209.171458" style="stroke: #000000; stroke-linejoin: miter"/>
     <use xlink:href="#med23bc454b" x="54.93675" y="194.798125" style="stroke: #000000; stroke-linejoin: miter"/>
     <use xlink:href="#med23bc454b" x="98.87925" y="122.931458" style="stroke: #000000; stroke-linejoin: miter"/>
     <use xlink:href="#med23bc454b" x="164.86275" y="108.558125" style="stroke: #000000; stroke-linejoin: miter"/>
     <use xlink:href="#med23bc454b" x="277.822875" y="51.064792" style="stroke: #000000; stroke-linejoin: miter"/>
     <use xlink:href="#med23bc454b" x="341.853375" y="29.504792" style="stroke: #000000; stroke-linejoin: miter"/>
     <use xlink:href="#med23bc454b" x="492.4785" y="15.131458" style="stroke: #000000; stroke-linejoin: miter"/>
    </g>
   </g>
   <g id="line2d_34">
    <path d="M 47.578125 209.171458 
L 50.325852 209.171458 
L 53.07358 209.171458 
L 55.821307 208.336008 
L 58.569034 206.265509 
L 61.316761 204.744325 
L 64.064489 203.579455 
L 66.812216 202.658831 
L 69.559943 201.912925 
L 72.30767 201.296309 
L 75.055398 200.778049 
L 77.803125 200.33635 
L 80.550852 199.955414 
L 83.29858 199.623509 
L 86.046307 199.331742 
L 88.794034 199.073246 
L 91.541761 198.842638 
L 94.289489 198.635635 
L 97.037216 198.44879 
L 99.784943 197.179478 
L 102.53267 193.885198 
L 105.280398 190.870823 
L 108.028125 188.102134 
L 110.775852 185.55027 
L 113.52358 183.190721 
L 116.271307 181.002535 
L 119.019034 178.9677 
L 121.766761 177.07064 
L 124.514489 175.29782 
L 127.262216 173.637423 
L 130.009943 172.079084 
L 132.75767 170.613673 
L 135.505398 169.233119 
L 138.253125 167.930258 
L 141.000852 166.698712 
L 143.74858 165.532781 
L 146.496307 164.427358 
L 149.244034 163.377851 
L 151.991761 162.380122 
L 154.739489 161.430432 
L 157.487216 160.525393 
L 160.234943 159.661928 
L 162.98267 158.837237 
L 165.730398 157.949099 
L 168.478125 156.887805 
L 171.225852 155.871161 
L 173.97358 154.896408 
L 176.721307 153.961008 
L 179.469034 153.062625 
L 182.216761 152.199105 
L 184.964489 151.368456 
L 187.712216 150.568838 
L 190.459943 149.798543 
L 193.20767 149.055987 
L 195.955398 148.339698 
L 198.703125 147.648307 
L 201.450852 146.980538 
L 204.19858 146.3352 
L 206.946307 145.711183 
L 209.694034 145.107446 
L 212.441761 144.523016 
L 215.189489 143.956983 
L 217.937216 143.40849 
L 220.684943 142.876736 
L 223.43267 142.360965 
L 226.180398 141.860467 
L 228.928125 141.374574 
L 231.675852 140.902656 
L 234.42358 140.444119 
L 237.171307 139.998401 
L 239.919034 139.564972 
L 242.666761 139.14333 
L 245.414489 138.733003 
L 248.162216 138.333539 
L 250.909943 137.944513 
L 253.65767 137.565522 
L 256.405398 137.196182 
L 259.153125 136.836129 
L 261.900852 136.485017 
L 264.64858 136.142518 
L 267.396307 135.808317 
L 270.144034 135.482118 
L 272.891761 135.163636 
L 275.639489 134.8526 
L 278.387216 134.412302 
L 281.134943 133.460178 
L 283.88267 132.529561 
L 286.630398 131.619731 
L 289.378125 130.729999 
L 292.125852 129.859707 
L 294.87358 129.008224 
L 297.621307 128.174947 
L 300.369034 127.359299 
L 303.116761 126.560725 
L 305.864489 125.778695 
L 308.612216 125.012701 
L 311.359943 124.262254 
L 314.10767 123.526885 
L 316.855398 122.806145 
L 319.603125 122.099602 
" clip-path="url(#pd349a46f71)" style="fill: none; stroke: #000000; stroke-width: 1.5; stroke-linecap: square"/>
   </g>
   <g id="patch_3">
    <path d="M 40.603125 216.358125 
L 40.603125 22.318125 
" style="fill: none; stroke: #000000; stroke-width: 0.8; stroke-linejoin: miter; stroke-linecap: square"/>
   </g>
   <g id="patch_4">
    <path d="M 319.603125 216.358125 
L 319.603125 22.318125 
" style="fill: none; stroke: #000000; stroke-width: 0.8; stroke-linejoin: miter; stroke-linecap: square"/>
   </g>
   <g id="patch_5">
    <path d="M 40.603125 216.358125 
L 319.603125 216.358125 
" style="fill: none; stroke: #000000; stroke-width: 0.8; stroke-linejoin: miter; stroke-linecap: square"/>
   </g>
   <g id="patch_6">
    <path d="M 40.603125 22.318125 
L 319.603125 22.318125 
" style="fill: none; stroke: #000000; stroke-width: 0.8; stroke-linejoin: miter; stroke-linecap: square"/>
   </g>
   <g id="text_18">
    <!-- Marginal and Effective Tax Rates for 2022 -->
    <g transform="translate(54.96375 16.318125)scale(0.12 -0.12)">
     <defs>
      <path id="DejaVuSans-4d" d="M 628 4666 
L 1569 4666 
L 2759 1491 
L 3956 4666 
L 4897 4666 
L 4897 0 
L 4281 0 
L 4281 4097 
L 3078 897 
L 2444 897 
L 1241 4097 
L 1241 0 
L 628 0 
L 628 4666 
z
" transform="scale(0.015625)"/>
      <path id="DejaVuSans-67" d="M 2906 1791 
Q 2906 2416 2648 2759 
Q 2391 3103 1925 3103 
Q 1463 3103 1205 2759 
Q 947 2416 947 1791 
Q 947 1169 1205 825 
Q 1463 481 1925 481 
Q 2391 481 2648 825 
Q 2906 1169 2906 1791 
z
M 3481 434 
Q 3481 -459 3084 -895 
Q 2688 -1331 1869 -1331 
Q 1566 -1331 1297 -1286 
Q 1028 -1241 775 -1147 
L 775 -588 
Q 1028 -725 1275 -790 
Q 1522 -856 1778 -856 
Q 2344 -856 2625 -561 
Q 2906 -266 2906 331 
L 2906 616 
Q 2728 306 2450 153 
Q 2172 0 1784 0 
Q 1141 0 747 490 
Q 353 981 353 1791 
Q 353 2603 747 3093 
Q 1141 3584 1784 3584 
Q 2172 3584 2450 3431 
Q 2728 3278 2906 2969 
L 2906 3500 
L 3481 3500 
L 3481 434 
z
" transform="scale(0.015625)"/>
      <path id="DejaVuSans-64" d="M 2906 2969 
L 2906 4863 
L 3481 4863 
L 3481 0 
L 2906 0 
L 2906 525 
Q 2725 213 2448 61 
Q 2172 -91 1784 -91 
Q 1150 -91 751 415 
Q 353 922 353 1747 
Q 353 2572 751 3078 
Q 1150 3584 1784 3584 
Q 2172 3584 2448 3432 
Q 2725 3281 2906 2969 
z
M 947 1747 
Q 947 1113 1208 752 
Q 1469 391 1925 391 
Q 2381 391 2643 752 
Q 2906 1113 2906 1747 
Q 2906 2381 2643 2742 
Q 2381 3103 1925 3103 
Q 1469 3103 1208 2742 
Q 947 2381 947 1747 
z
" transform="scale(0.015625)"/>
      <path id="DejaVuSans-45" d="M 628 4666 
L 3578 4666 
L 3578 4134 
L 1259 4134 
L 1259 2753 
L 3481 2753 
L 3481 2222 
L 1259 2222 
L 1259 531 
L 3634 531 
L 3634 0 
L 628 0 
L 628 4666 
z
" transform="scale(0.015625)"/>
      <path id="DejaVuSans-54" d="M -19 4666 
L 3928 4666 
L 3928 4134 
L 2272 4134 
L 2272 0 
L 1638 0 
L 1638 4134 
L -19 4134 
L -19 4666 
z
" transform="scale(0.015625)"/>
      <path id="DejaVuSans-52" d="M 2841 2188 
Q 3044 2119 3236 1894 
Q 3428 1669 3622 1275 
L 4263 0 
L 3584 0 
L 2988 1197 
Q 2756 1666 2539 1819 
Q 2322 1972 1947 1972 
L 1259 1972 
L 1259 0 
L 628 0 
L 628 4666 
L 2053 4666 
Q 2853 4666 3247 4331 
Q 3641 3997 3641 3322 
Q 3641 2881 3436 2590 
Q 3231 2300 2841 2188 
z
M 1259 4147 
L 1259 2491 
L 2053 2491 
Q 2509 2491 2742 2702 
Q 2975 2913 2975 3322 
Q 2975 3731 2742 3939 
Q 2509 4147 2053 4147 
L 1259 4147 
z
" transform="scale(0.015625)"/>
      <path id="DejaVuSans-73" d="M 2834 3397 
L 2834 2853 
Q 2591 2978 2328 3040 
Q 2066 3103 1784 3103 
Q 1356 3103 1142 2972 
Q 928 2841 928 2578 
Q 928 2378 1081 2264 
Q 1234 2150 1697 2047 
L 1894 2003 
Q 2506 1872 2764 1633 
Q 3022 1394 3022 966 
Q 3022 478 2636 193 
Q 2250 -91 1575 -91 
Q 1294 -91 989 -36 
Q 684 19 347 128 
L 347 722 
Q 666 556 975 473 
Q 1284 391 1588 391 
Q 1994 391 2212 530 
Q 2431 669 2431 922 
Q 2431 1156 2273 1281 
Q 2116 1406 1581 1522 
L 1381 1569 
Q 847 1681 609 1914 
Q 372 2147 372 2553 
Q 372 3047 722 3315 
Q 1072 3584 1716 3584 
Q 2034 3584 2315 3537 
Q 2597 3491 2834 3397 
z
" transform="scale(0.015625)"/>
     </defs>
     <use xlink:href="#DejaVuSans-4d"/>
     <use xlink:href="#DejaVuSans-61" x="86.279297"/>
     <use xlink:href="#DejaVuSans-72" x="147.558594"/>
     <use xlink:href="#DejaVuSans-67" x="186.921875"/>
     <use xlink:href="#DejaVuSans-69" x="250.398438"/>
     <use xlink:href="#DejaVuSans-6e" x="278.181641"/>
     <use xlink:href="#DejaVuSans-61" x="341.560547"/>
     <use xlink:href="#DejaVuSans-6c" x="402.839844"/>
     <use xlink:href="#DejaVuSans-20" x="430.623047"/>
     <use xlink:href="#DejaVuSans-61" x="462.410156"/>
     <use xlink:href="#DejaVuSans-6e" x="523.689453"/>
     <use xlink:href="#DejaVuSans-64" x="587.068359"/>
     <use xlink:href="#DejaVuSans-20" x="650.544922"/>
     <use xlink:href="#DejaVuSans-45" x="682.332031"/>
     <use xlink:href="#DejaVuSans-66" x="745.515625"/>
     <use xlink:href="#DejaVuSans-66" x="780.720703"/>
     <use xlink:href="#DejaVuSans-65" x="815.925781"/>
     <use xlink:href="#DejaVuSans-63" x="877.449219"/>
     <use xlink:href="#DejaVuSans-74" x="932.429688"/>
     <use xlink:href="#DejaVuSans-69" x="971.638672"/>
     <use xlink:href="#DejaVuSans-76" x="999.421875"/>
     <use xlink:href="#DejaVuSans-65" x="1058.601562"/>
     <use xlink:href="#DejaVuSans-20" x="1120.125"/>
     <use xlink:href="#DejaVuSans-54" x="1151.912109"/>
     <use xlink:href="#DejaVuSans-61" x="1196.496094"/>
     <use xlink:href="#DejaVuSans-78" x="1257.775391"/>
     <use xlink:href="#DejaVuSans-20" x="1316.955078"/>
     <use xlink:href="#DejaVuSans-52" x="1348.742188"/>
     <use xlink:href="#DejaVuSans-61" x="1415.974609"/>
     <use xlink:href="#DejaVuSans-74" x="1477.253906"/>
     <use xlink:href="#DejaVuSans-65" x="1516.462891"/>
     <use xlink:href="#DejaVuSans-73" x="1577.986328"/>
     <use xlink:href="#DejaVuSans-20" x="1630.085938"/>
     <use xlink:href="#DejaVuSans-66" x="1661.873047"/>
     <use xlink:href="#DejaVuSans-6f" x="1697.078125"/>
     <use xlink:href="#DejaVuSans-72" x="1758.259766"/>
     <use xlink:href="#DejaVuSans-20" x="1799.373047"/>
     <use xlink:href="#DejaVuSans-32" x="1831.160156"/>
     <use xlink:href="#DejaVuSans-30" x="1894.783203"/>
     <use xlink:href="#DejaVuSans-32" x="1958.40625"/>
     <use xlink:href="#DejaVuSans-32" x="2022.029297"/>
    </g>
   </g>
   <g id="legend_1">
    <g id="patch_7">
     <path d="M 219.054688 211.358125 
L 312.603125 211.358125 
Q 314.603125 211.358125 314.603125 209.358125 
L 314.603125 151.645625 
Q 314.603125 149.645625 312.603125 149.645625 
L 219.054688 149.645625 
Q 217.054688 149.645625 217.054688 151.645625 
L 217.054688 209.358125 
Q 217.054688 211.358125 219.054688 211.358125 
z
" style="fill: #ffffff; opacity: 0.8; stroke: #cccccc; stroke-linejoin: miter"/>
    </g>
    <g id="line2d_35">
     <path d="M 221.054688 157.744062 
L 231.054688 157.744062 
L 231.054688 157.744062 
L 241.054688 157.744062 
L 241.054688 157.744062 
" style="fill: none; stroke-dasharray: 5.55,2.4; stroke-dashoffset: 0; stroke: #000000; stroke-width: 1.5"/>
     <g>
      <use xlink:href="#m2fad55d447" x="231.054688" y="157.744062" style="stroke: #000000"/>
     </g>
    </g>
    <g id="text_19">
     <!-- marg single -->
     <g transform="translate(249.054688 161.244062)scale(0.1 -0.1)">
      <use xlink:href="#DejaVuSans-6d"/>
      <use xlink:href="#DejaVuSans-61" x="97.412109"/>
      <use xlink:href="#DejaVuSans-72" x="158.691406"/>
      <use xlink:href="#DejaVuSans-67" x="198.054688"/>
      <use xlink:href="#DejaVuSans-20" x="261.53125"/>
      <use xlink:href="#DejaVuSans-73" x="293.318359"/>
      <use xlink:href="#DejaVuSans-69" x="345.417969"/>
      <use xlink:href="#DejaVuSans-6e" x="373.201172"/>
      <use xlink:href="#DejaVuSans-67" x="436.580078"/>
      <use xlink:href="#DejaVuSans-6c" x="500.056641"/>
      <use xlink:href="#DejaVuSans-65" x="527.839844"/>
     </g>
    </g>
    <g id="line2d_36">
     <path d="M 221.054688 172.422187 
L 231.054688 172.422187 
L 241.054688 172.422187 
" style="fill: none; stroke-dasharray: 5.55,2.4; stroke-dashoffset: 0; stroke: #000000; stroke-width: 1.5"/>
    </g>
    <g id="text_20">
     <!-- effect single -->
     <g transform="translate(249.054688 175.922187)scale(0.1 -0.1)">
      <use xlink:href="#DejaVuSans-65"/>
      <use xlink:href="#DejaVuSans-66" x="61.523438"/>
      <use xlink:href="#DejaVuSans-66" x="96.728516"/>
      <use xlink:href="#DejaVuSans-65" x="131.933594"/>
      <use xlink:href="#DejaVuSans-63" x="193.457031"/>
      <use xlink:href="#DejaVuSans-74" x="248.4375"/>
      <use xlink:href="#DejaVuSans-20" x="287.646484"/>
      <use xlink:href="#DejaVuSans-73" x="319.433594"/>
      <use xlink:href="#DejaVuSans-69" x="371.533203"/>
      <use xlink:href="#DejaVuSans-6e" x="399.316406"/>
      <use xlink:href="#DejaVuSans-67" x="462.695312"/>
      <use xlink:href="#DejaVuSans-6c" x="526.171875"/>
      <use xlink:href="#DejaVuSans-65" x="553.955078"/>
     </g>
    </g>
    <g id="line2d_37">
     <path d="M 221.054688 187.100312 
L 231.054688 187.100312 
L 231.054688 187.100312 
L 241.054688 187.100312 
L 241.054688 187.100312 
" style="fill: none; stroke: #000000; stroke-width: 1.5; stroke-linecap: square"/>
     <g>
      <use xlink:href="#med23bc454b" x="231.054688" y="187.100312" style="stroke: #000000; stroke-linejoin: miter"/>
     </g>
    </g>
    <g id="text_21">
     <!-- marg joint -->
     <g transform="translate(249.054688 190.600312)scale(0.1 -0.1)">
      <defs>
       <path id="DejaVuSans-6a" d="M 603 3500 
L 1178 3500 
L 1178 -63 
Q 1178 -731 923 -1031 
Q 669 -1331 103 -1331 
L -116 -1331 
L -116 -844 
L 38 -844 
Q 366 -844 484 -692 
Q 603 -541 603 -63 
L 603 3500 
z
M 603 4863 
L 1178 4863 
L 1178 4134 
L 603 4134 
L 603 4863 
z
" transform="scale(0.015625)"/>
      </defs>
      <use xlink:href="#DejaVuSans-6d"/>
      <use xlink:href="#DejaVuSans-61" x="97.412109"/>
      <use xlink:href="#DejaVuSans-72" x="158.691406"/>
      <use xlink:href="#DejaVuSans-67" x="198.054688"/>
      <use xlink:href="#DejaVuSans-20" x="261.53125"/>
      <use xlink:href="#DejaVuSans-6a" x="293.318359"/>
      <use xlink:href="#DejaVuSans-6f" x="321.101562"/>
      <use xlink:href="#DejaVuSans-69" x="382.283203"/>
      <use xlink:href="#DejaVuSans-6e" x="410.066406"/>
      <use xlink:href="#DejaVuSans-74" x="473.445312"/>
     </g>
    </g>
    <g id="line2d_38">
     <path d="M 221.054688 201.778437 
L 231.054688 201.778437 
L 241.054688 201.778437 
" style="fill: none; stroke: #000000; stroke-width: 1.5; stroke-linecap: square"/>
    </g>
    <g id="text_22">
     <!-- effect joint -->
     <g transform="translate(249.054688 205.278437)scale(0.1 -0.1)">
      <use xlink:href="#DejaVuSans-65"/>
      <use xlink:href="#DejaVuSans-66" x="61.523438"/>
      <use xlink:href="#DejaVuSans-66" x="96.728516"/>
      <use xlink:href="#DejaVuSans-65" x="131.933594"/>
      <use xlink:href="#DejaVuSans-63" x="193.457031"/>
      <use xlink:href="#DejaVuSans-74" x="248.4375"/>
      <use xlink:href="#DejaVuSans-20" x="287.646484"/>
      <use xlink:href="#DejaVuSans-6a" x="319.433594"/>
      <use xlink:href="#DejaVuSans-6f" x="347.216797"/>
      <use xlink:href="#DejaVuSans-69" x="408.398438"/>
      <use xlink:href="#DejaVuSans-6e" x="436.181641"/>
      <use xlink:href="#DejaVuSans-74" x="499.560547"/>
     </g>
    </g>
   </g>
  </g>
 </g>
 <defs>
  <clipPath id="pd349a46f71">
   <rect x="40.603125" y="22.318125" width="279" height="194.04"/>
  </clipPath>
 </defs>
</svg>
